<svg width="195" height="53" viewBox="0 0 195 53" fill="none" xmlns="http://www.w3.org/2000/svg">
    <path fill-rule="evenodd" clip-rule="evenodd" d="M97.8563 14.5037C97.1497 12.1303 97.1013 9.53762 97.8466 7.24709C99.2551 2.93893 103.016 2.03247 106.975 1.85215C109.501 1.73519 112.028 1.75468 114.559 1.75468C120.755 1.75468 127.434 3.00716 132.279 7.15936C132.797 7.59798 133.281 8.0707 133.736 8.56292C137.516 1.55487 143.3 0.628906 151.155 0.628906C153.41 0.628906 155.443 1.6767 156.75 3.35805C157.147 3.19235 157.549 3.04128 157.95 2.90482C162.442 1.3648 168.26 0.965176 171.004 5.7558C171.556 6.71588 172.074 7.70519 172.567 8.69938C173.066 7.95374 173.574 7.21297 174.102 6.48195C175.573 4.43509 177.025 2.52469 179.576 1.77905C181.836 1.12113 184.677 1.59385 186.923 2.20304C188.748 2.69526 190.587 3.46527 192.053 4.68851C194.106 6.3991 195.151 8.77248 194.88 11.4724C194.73 13.0124 194.13 14.3819 193.104 15.5369C188.932 20.2398 184.295 27.3209 182.383 33.3884C182.209 34.4362 182.373 36.4782 182.417 37.5552C182.494 39.3974 182.581 41.2688 182.833 43.0964C183.22 45.9279 181.981 48.6814 179.687 50.3383C175.955 53.0236 167.248 53.1503 163.584 50.119C160.428 51.9515 156.179 52.5607 153.062 52.1659C149.035 51.6542 146.717 48.3597 145.269 44.8313C144.621 44.8996 143.972 44.9824 143.329 45.075C143.261 48.3743 140.904 51.3179 137.569 52.0002C132.676 53.0041 123.784 51.4885 122.323 45.806C121.8 43.764 122.071 41.4004 122.57 39.1732C121.689 39.529 120.788 39.8458 119.879 40.1187C119.893 40.2697 119.903 40.4257 119.912 40.5768C119.956 41.108 120.009 41.6343 120.116 42.1607C120.59 44.5487 119.879 46.9123 118.17 48.6326C115.489 51.3325 111.694 51.9563 108.059 51.9563C106.322 51.9563 104.618 51.6834 103.05 50.8939C103.045 50.8939 103.04 50.889 103.035 50.889C101.709 51.4592 100.247 51.7565 98.8243 51.9076C96.7334 52.1269 94.236 52.1659 92.2467 51.4495C91.5643 51.2058 90.9351 50.8598 90.3736 50.4407C88.4957 51.4349 86.3128 51.8345 84.188 51.9174C83.1861 51.9563 82.1746 51.932 81.1775 51.8004C79.0334 51.5226 77.1409 50.543 75.868 49.0615C73.1914 50.8208 70.0357 51.7517 66.5945 51.7517C63.0467 51.7517 59.649 50.7965 56.7643 48.8861C55.8302 49.5927 54.7847 50.1678 53.7151 50.6503C51.8662 51.4787 49.5526 52.2439 47.5198 52.2439C46.2566 52.2439 45.0707 51.9417 44.0011 51.3813C42.3458 51.9222 40.5889 52.2195 38.8755 52.2195C35.7875 52.2195 32.8448 51.3228 30.4248 49.6366C30.1634 49.8851 29.8827 50.119 29.5826 50.3383C28.6678 50.9963 27.6466 51.4446 26.5624 51.7419C25.2604 52.0977 23.8907 52.2488 22.5452 52.3024C19.4282 52.4291 15.7449 52.1562 13.3055 49.9728C11.7615 48.5888 10.9194 46.7027 10.9194 44.6169C10.9194 42.0973 11.113 39.5875 11.234 37.0728C11.2969 35.6984 11.3888 34.0366 11.1662 32.6623C10.9484 31.9751 10.4547 31.0443 10.1595 30.4253C9.33182 28.6758 8.43641 26.9554 7.51196 25.2546C6.55363 23.505 5.55658 21.77 4.47725 20.0984C4.00776 19.3674 3.26724 18.1637 2.64771 17.5691C-0.914567 14.1577 -0.609644 8.79685 3.01555 5.56086C4.39497 4.32787 6.11319 3.49451 7.84592 2.90482C12.3375 1.3648 18.1552 0.965176 20.8995 5.7558C21.4513 6.71588 21.9692 7.70519 22.4629 8.69938C22.9614 7.95374 23.4696 7.21297 23.9972 6.48195C25.4685 4.43509 26.9206 2.52469 29.4713 1.77905C31.7316 1.12113 34.5727 1.59385 36.8185 2.20304C38.6432 2.69526 40.4824 3.46527 41.9489 4.68851C44.0011 6.3991 45.0465 8.77248 44.7755 11.4724C44.7126 12.1303 44.5625 12.759 44.3399 13.3487C48.3281 14.0115 51.992 15.6343 54.5621 18.5438C60.6363 12.257 71.1054 10.8486 77.8718 16.0876C80.345 14.0846 83.4669 13.3535 86.6419 13.3535C87.4696 13.3535 88.2827 13.4169 89.091 13.6118C89.725 13.7629 90.3397 13.9968 90.9109 14.299C91.9563 14.0748 93.026 13.9676 94.1004 13.9676C95.4411 13.9676 96.6947 14.1528 97.8563 14.5037Z" fill="white"/>
    <path fill-rule="evenodd" clip-rule="evenodd" d="M28.5855 42.5944C28.6 42.6918 28.6097 42.7844 28.6242 42.877C28.8372 44.4365 28.1451 45.9132 26.8818 46.8197C26.3058 47.2388 25.6476 47.5117 24.9652 47.6969C23.9294 47.9844 22.7871 48.0965 21.7175 48.1404C19.6217 48.2232 16.5386 48.1453 14.9075 46.6832C14.0944 45.9571 13.6782 45.0165 13.6782 43.92C13.6782 41.454 13.8718 39.0075 13.9879 36.5415C14.0654 34.8455 14.1476 32.8572 13.8379 31.1758C13.6007 30.3181 12.9618 29.0412 12.5795 28.2371C11.7228 26.429 10.7983 24.6405 9.84 22.886C8.84779 21.0682 7.80234 19.2553 6.67944 17.5106C6.05992 16.5554 5.15483 15.1469 4.33686 14.3623C2.23144 12.3447 2.50732 9.34263 4.61274 7.46634C5.62915 6.555 6.98921 5.9312 8.26698 5.49259C11.0306 4.55201 15.4448 3.68453 17.2259 6.7938C18.6586 9.29877 19.8976 12.0913 21.0786 14.7327C21.156 14.9033 21.2335 15.0738 21.3061 15.2444C21.9256 14.1966 22.5258 13.2365 23.0001 12.4763C23.9875 10.8973 25.0136 9.33289 26.0977 7.82211C27.0319 6.52089 28.1354 4.88828 29.7423 4.42042C31.2863 3.97206 33.6869 4.43992 35.2309 4.85903C37.8784 5.57544 40.9857 7.11058 40.6566 10.4343C40.5792 11.2433 40.2839 11.9207 39.7418 12.5299C38.8561 13.529 37.9462 14.6304 37.0508 15.8049C37.7816 15.761 38.5076 15.7707 39.1659 15.7707C46.0484 15.7707 51.75 18.2708 53.5263 24.275C54.1506 23.042 54.9202 21.8772 55.8301 20.8294C61.5462 14.2307 72.7752 13.5874 77.62 20.8928C77.8088 20.035 78.1428 19.2455 78.7381 18.6412C80.6548 16.7162 83.3313 16.1314 85.9546 16.1314C86.5064 16.1314 87.0678 16.1655 87.6051 16.2922C88.3698 16.4774 89.0522 16.8624 89.575 17.3887C90.7656 16.9648 92.0482 16.7406 93.4131 16.7406C97.7595 16.7406 100.605 19.3333 102.053 23.0712C102.086 20.7076 102.12 18.3488 102.154 15.9949C100.257 13.7678 99.5697 10.2881 100.436 7.63204C101.317 4.92239 104.114 4.73232 106.443 4.62511C108.901 4.51302 111.404 4.52764 113.867 4.52764C119.186 4.52764 125.178 5.5267 129.355 9.10871C131.432 10.8875 132.821 13.1342 133.435 15.6148C134.06 14.0699 134.699 12.5396 135.352 11.0289C138.469 3.83073 143.406 3.40674 150.468 3.40674C152.283 3.40674 153.802 4.70796 154.093 6.51114C154.161 6.95463 154.233 7.40299 154.311 7.86597C154.436 7.72951 154.572 7.59306 154.717 7.46634C155.734 6.555 157.094 5.9312 158.371 5.49259C161.135 4.55201 165.549 3.68453 167.33 6.7938C168.763 9.29877 170.002 12.0913 171.183 14.7327C171.26 14.9033 171.338 15.0738 171.411 15.2444C172.03 14.1966 172.63 13.2365 173.105 12.4763C174.092 10.8973 175.118 9.33289 176.202 7.82211C177.136 6.52089 178.24 4.88828 179.847 4.42042C181.391 3.97206 183.791 4.43992 185.335 4.85903C187.983 5.57544 191.09 7.11058 190.761 10.4343C190.684 11.2433 190.388 11.9207 189.846 12.5299C185.34 17.6081 180.365 25.2789 178.351 31.8337C178.085 32.9741 178.23 35.7618 178.283 37.0045C178.361 38.9198 178.467 40.9813 178.729 42.877C178.942 44.4365 178.249 45.9132 176.986 46.8197C174.373 48.7057 167.209 48.6472 165.012 46.6832C164.199 45.9571 163.783 45.0165 163.783 43.92C163.783 41.454 163.976 39.0075 164.092 36.5415C164.17 34.8455 164.252 32.8572 163.942 31.1758C163.705 30.3181 163.066 29.0412 162.684 28.2371C161.827 26.429 160.903 24.6405 159.944 22.886C158.952 21.0682 157.907 19.2553 156.784 17.5106C156.469 17.0232 156.082 16.4238 155.666 15.8439C157.273 24.5966 159.577 34.3679 163.279 40.7571C163.623 41.3516 163.778 41.9365 163.778 42.6236C163.778 47.117 156.208 48.4572 152.801 48.0283C149.611 47.6238 147.956 43.7884 146.949 40.5036C144.442 40.5816 141.964 40.9228 139.5 41.4052C139.311 42.1655 139.152 42.9355 139.113 43.4862C139.529 45.4648 138.237 47.4873 136.194 47.9065C132.874 48.5839 125.837 47.6043 124.97 44.2416C124.394 41.9949 125.386 38.4763 126.016 36.2783C126.534 34.4654 127.114 32.6573 127.729 30.8639C127.4 31.1612 127.056 31.4487 126.713 31.7216C123.475 34.29 119.627 35.9323 115.61 36.7559C115.643 37.8915 115.702 39.0319 115.789 40.1528C115.842 40.8399 115.915 41.4783 116.045 42.146C116.292 43.3936 115.939 44.5827 115.043 45.4843C113.088 47.4532 109.995 47.7944 107.372 47.7944C106.186 47.7944 104.976 47.6384 103.902 47.0975C103.355 46.8197 102.904 46.4347 102.566 45.9717C101.385 47.1511 99.4438 47.5848 97.774 47.7603C96.2639 47.9211 94.1391 47.9991 92.7162 47.4873C91.3367 46.9902 90.422 45.7767 90.2961 44.3634C90.1171 44.8264 89.8557 45.265 89.4637 45.6598C87.9148 47.2144 85.4803 47.6725 83.3652 47.7554C82.5617 47.7895 81.7292 47.77 80.9306 47.6677C78.6752 47.3752 76.6327 45.8352 77.0102 43.2133C77.0925 42.6236 77.1651 42.0339 77.228 41.4345C74.7547 45.2553 70.8488 47.5897 65.9071 47.5897C61.8124 47.5897 58.2647 46.0692 55.7237 43.4082C54.9589 45.0165 53.2359 46.0594 51.6241 46.7856C50.2689 47.3899 48.3135 48.077 46.8325 48.077C45.5934 48.077 44.5867 47.5653 43.7784 46.7904C41.9924 47.6141 40.0032 48.0527 38.1833 48.0527C33.9725 48.0527 30.415 45.9717 28.5855 42.5944ZM144.703 28.51C144.301 26.5265 144.098 25.4641 143.861 23.6999C143.687 22.3743 142.075 26.8579 141.852 28.6611L144.703 28.51ZM28.1354 32.6525C28.9195 30.6933 30.1924 28.9584 31.8041 27.5451C31.2766 27.1942 30.8506 26.7068 30.5602 26.1366C29.6068 28.0714 28.813 29.9964 28.2467 31.8337C28.1935 32.053 28.1596 32.3308 28.1354 32.6525ZM115.556 23.3831C116.563 23.0274 117.507 22.54 118.281 21.8918C118.954 21.3265 119.719 20.4103 119.69 19.4648C119.666 18.7728 119.177 18.2855 118.606 17.9589C117.778 17.4862 116.723 17.301 115.663 17.2767C115.648 17.92 115.643 18.5535 115.634 19.1188C115.6 20.5419 115.571 21.9649 115.556 23.3831ZM65.9071 35.0356C66.2653 35.0356 66.8751 33.6564 66.9671 33.3884C67.4075 32.1115 67.5769 30.1719 67.03 28.9145C66.7057 28.1591 66.0959 28.4759 65.6119 28.9827C64.7649 29.8746 64.5858 32.0433 64.7697 33.2324C64.8665 33.8611 65.0843 35.0356 65.9071 35.0356Z" fill="black"/>
    <path d="M144.48 15.4978C144.35 15.0007 142.859 15.1518 142.67 15.5173C142.123 16.5944 139.335 24.3042 137.143 31.283C139.819 30.8493 143.45 30.4886 147.53 30.63C146.087 24.1677 144.945 17.2376 144.48 15.4978ZM135.488 36.8485C134.65 39.9237 134.181 42.2581 134.471 42.8429C134.587 43.072 127.656 42.6041 127.477 41.9072C126.509 38.1546 136.47 13.8555 137.666 11.0971C139.839 6.08226 142.622 5.69238 149.417 5.69238C151.092 16.0924 153.735 32.014 159.064 41.2152C159.064 42.2971 153.473 43.1109 152.21 42.955C151.029 42.8039 149.809 39.602 148.691 35.4206C143.241 35.1672 138.203 36.2345 135.488 36.8485Z" fill="#7F86E8"/>
    <path d="M110.813 32.1653C110.949 39.1149 111.196 40.4405 111.399 41.4639C110.586 42.2826 108.896 42.692 106.322 42.692C105.513 42.692 104.903 42.5897 104.497 42.385C104.497 37.3751 104.599 27.5453 104.802 12.9005C103.543 12.3156 102.125 9.66447 102.871 7.37881C103.035 6.87684 106.559 6.81836 112.817 6.81836C137.714 6.81836 131.587 30.2841 110.813 32.1653ZM110.813 26.4926C126.703 25.0647 125.464 9.78631 111.142 12.4911C110.973 13.7143 110.813 20.1571 110.813 26.4926Z" fill="#7F86E8"/>
    <path d="M80.0304 23.271C80.0062 21.1608 80.1175 20.0204 80.2869 19.8498C81.2307 18.8946 82.7747 18.417 84.9043 18.417C85.6158 18.417 85.9885 18.5047 85.9691 18.6704C85.9304 19.0505 85.64 22.3499 85.9691 22.3499C86.003 22.3499 86.0659 22.3255 86.124 22.2475C87.7551 20.113 89.8267 19.031 92.3628 19.031C95.2088 19.031 97.0916 20.7855 97.9967 24.2944C99.0082 28.2176 99.1728 37.3894 98.9405 41.834C98.9017 42.643 94.0714 43.0183 92.9049 42.5992C93.2776 39.2219 93.5293 31.0247 92.721 27.8715C91.5594 23.3489 85.9401 25.3325 85.9691 28.9437C85.9837 30.5519 86.153 41.3028 85.8191 41.6391C84.459 43.0085 79.5367 42.7502 79.5948 42.3311C80.4127 36.6194 80.1078 29.163 80.0304 23.271Z" fill="#FFDB59"/>
    <path d="M64.8568 42.4873C53.9716 42.4873 51.2611 29.1096 57.5484 21.8482C62.1028 16.5945 71.6619 16.1949 74.3966 23.2468C77.0828 30.1818 74.8128 42.4873 64.8568 42.4873ZM61.9141 25.0159C58.8164 28.2665 59.1746 37.3263 64.8568 37.3263C69.1983 37.3263 71.0956 30.0697 69.3484 26.0345C67.9157 22.7205 64.1744 22.6425 61.9141 25.0159Z" fill="#FFDB59"/>
    <path d="M49.3832 29.7627C49.3832 34.0173 49.4365 36.5076 49.5381 37.224C49.8043 39.0954 50.5351 39.3489 51.416 40.1627C51.416 41.3129 47.0697 42.9747 45.7822 42.9747C44.9691 42.9747 44.1463 40.7086 44.0059 40.1335C43.9624 39.9532 43.8559 40.0555 43.793 40.1335C42.4571 41.7661 39.6402 42.9504 37.1379 42.9504C28.4355 42.9504 26.9738 31.2394 35.986 27.1018C38.4544 25.9712 40.705 25.4205 42.7378 25.4205C42.7717 25.4205 42.8056 25.401 42.8395 25.3669C42.8395 23.6953 40.7389 22.8619 36.5474 22.8619C34.8873 22.8619 33.6627 23.0666 32.8399 23.0666H32.7915C32.7915 21.2634 33.3723 19.7039 34.5678 18.4173C34.7953 18.1687 35.986 18.0615 38.1204 18.0615C45.6273 18.0615 49.3832 21.0928 49.3832 27.1554V29.7627ZM43.7542 31.0883C43.7542 30.3427 43.7349 29.9674 43.701 29.9674C42.2103 29.9674 40.7437 30.2745 39.2869 30.8836C33.2223 33.4325 35.8214 40.6208 41.9731 36.7123C43.9382 35.4696 43.7542 33.0962 43.7542 31.0883Z" fill="#FFDB59"/>
    <path d="M170.66 21.8287C171.261 18.5099 179.005 6.7989 179.818 6.5601C180.747 6.29206 186.192 7.35935 186.061 8.6557C179.227 16.3558 175.171 24.8649 173.787 29.3582C173.163 31.3905 173.714 39.5535 174.044 41.9756C174.223 43.2866 167.306 43.3256 166.401 42.5166C166.401 37.6188 167.19 32.6965 166.488 29.0219C166.057 26.785 159.185 13.4073 155.922 10.2786C153.914 8.35354 162.418 6.03864 163.1 7.23264C165.206 10.9024 168.555 18.9485 169.91 21.931C170.167 22.5012 170.588 22.2478 170.66 21.8287Z" fill="#7F86E8"/>
    <path d="M20.5559 21.8287C21.156 18.5099 28.9001 6.7989 29.7132 6.5601C30.6425 6.29206 36.0876 7.35935 35.9569 8.6557C29.1227 16.3558 25.0619 24.8649 23.6825 29.3582C23.0582 31.3905 23.6099 39.5535 23.9391 41.9756C24.1181 43.2866 17.2017 43.3256 16.2966 42.5166C16.2966 37.6188 17.0856 32.6965 16.3837 29.0219C15.953 26.785 9.08012 13.4073 5.81792 10.2786C3.80931 8.35354 12.3133 6.03864 12.9957 7.23264C15.1011 10.9024 18.4504 18.9485 19.8057 21.931C20.0622 22.5012 20.4833 22.2478 20.5559 21.8287Z" fill="#FFDB59"/>
    <path fill-rule="evenodd" clip-rule="evenodd" d="M104.778 8.2804C104.942 7.77843 107.982 7.71995 114.245 7.71995C119.036 7.71995 122.676 8.58743 125.29 10.0056C122.647 8.06597 118.557 6.81836 112.817 6.81836C106.559 6.81836 103.035 6.87684 102.871 7.37881C102.125 9.66447 103.543 12.3156 104.802 12.9005C104.599 27.5453 104.497 37.3751 104.497 42.385C104.831 42.5507 105.305 42.653 105.92 42.6823C105.93 37.5066 106.031 27.8815 106.225 13.7972C105.174 13.3147 104.032 10.5661 104.778 8.2804Z" fill="white"/>
    <path fill-rule="evenodd" clip-rule="evenodd" d="M149.417 5.69238C142.622 5.69238 139.839 6.08226 137.666 11.0971C136.47 13.8555 126.509 38.1546 127.477 41.9072C127.526 42.0973 128.073 42.2678 128.842 42.414C128.523 37.6185 137.932 14.6742 139.089 11.9938C140.875 7.8757 143.072 6.87664 147.573 6.65246C149.142 6.57448 149.49 5.97017 149.417 5.69238Z" fill="white"/>
    <path fill-rule="evenodd" clip-rule="evenodd" d="M145.903 16.3993C145.811 16.0484 145.173 15.1956 144.258 15.2736C144.374 15.3223 144.456 15.3954 144.48 15.4977C144.945 17.2376 146.087 24.1677 147.53 30.6299C143.45 30.4886 139.819 30.8492 137.138 31.2829C137.003 31.7118 137.37 32.1943 137.951 32.1114C140.637 31.7459 144.873 31.3902 148.953 31.5315C147.51 25.0693 146.368 18.1343 145.903 16.3993Z" fill="white"/>
    <path fill-rule="evenodd" clip-rule="evenodd" d="M150.114 36.3225C149.993 35.8156 149.364 35.4453 148.691 35.4209C149.809 39.6023 151.029 42.8042 152.21 42.9553C152.302 42.965 152.418 42.9699 152.554 42.9748C151.687 41.7272 150.816 39.2807 150.114 36.3225Z" fill="white"/>
    <path fill-rule="evenodd" clip-rule="evenodd" d="M166.488 29.0219C167.19 32.6965 166.401 37.6187 166.401 42.5166C166.614 42.7018 167.142 42.8431 167.829 42.9357C167.877 38.1987 168.589 33.4763 167.911 29.9235C167.485 27.6817 160.879 14.036 157.612 10.9072C155.985 9.34767 161 7.80278 163.42 7.80765C163.313 7.60784 163.207 7.4129 163.1 7.23258C162.418 6.03858 153.919 8.35348 155.922 10.2785C159.185 13.4073 166.057 26.785 166.488 29.0219Z" fill="white"/>
    <path fill-rule="evenodd" clip-rule="evenodd" d="M169.91 21.9306C170.196 23.1685 171.275 24.0506 171.885 22.4375C174.252 16.2043 180.428 7.70008 181.241 7.46128C181.841 7.28584 184.319 7.67084 185.969 8.30927C185.243 7.17375 180.66 6.31602 179.818 6.55969C179.005 6.79849 171.261 18.5095 170.66 21.8283C170.588 22.2474 170.167 22.5008 169.91 21.9306Z" fill="white"/>
    <path fill-rule="evenodd" clip-rule="evenodd" d="M112.236 27.3943C124.477 26.3367 126.553 17.004 120.329 14.002C124.694 17.6327 121.989 25.4887 110.813 26.4927C110.808 27.2676 111.607 27.4479 112.236 27.3943Z" fill="white"/>
    <path fill-rule="evenodd" clip-rule="evenodd" d="M80.0304 23.271C80.1079 29.163 80.4128 36.6194 79.5948 42.3311C79.5754 42.4773 80.1514 42.604 80.9694 42.6479C81.7244 36.9849 81.434 29.7137 81.3566 23.9435C81.3275 21.8333 81.4389 20.6929 81.6083 20.5223C82.5134 19.611 83.9557 19.1334 85.9304 19.0944C85.9498 18.8897 85.9643 18.7386 85.9691 18.6704C85.9885 18.5047 85.6158 18.417 84.9043 18.417C82.7747 18.417 81.2307 18.8946 80.2869 19.8498C80.1175 20.0204 80.0062 21.1608 80.0304 23.271Z" fill="white"/>
    <path fill-rule="evenodd" clip-rule="evenodd" d="M85.8965 22.277C85.9595 23.3345 87.1598 22.9983 87.4454 22.7107C89.3378 20.8052 91.1528 19.7038 93.689 19.7038C94.3231 19.7038 94.9087 19.7915 95.446 19.9621C94.5893 19.3432 93.5632 19.0312 92.3628 19.0312C89.8267 19.0312 87.7551 20.1132 86.124 22.2477C86.0659 22.3257 86.003 22.3501 85.9692 22.3501C85.9401 22.3501 85.9159 22.3257 85.8965 22.277Z" fill="white"/>
    <path fill-rule="evenodd" clip-rule="evenodd" d="M92.721 27.8716C93.5293 31.0247 93.2776 39.2219 92.9049 42.5992C93.1856 42.7016 93.6842 42.7552 94.2795 42.7698C94.6231 39.1439 94.8167 31.5511 94.0423 28.5441C93.5148 26.4827 91.8353 25.0596 89.9477 25.2594C91.148 25.3423 92.2709 26.1171 92.721 27.8716Z" fill="white"/>
    <path fill-rule="evenodd" clip-rule="evenodd" d="M66.183 37.9989C70.5197 37.9989 72.417 30.7423 70.6746 26.7071C70.0793 25.3328 69.0919 24.514 67.9738 24.1973C68.5304 24.631 69.0048 25.2402 69.3484 26.0346C71.0957 30.0698 69.1984 37.3264 64.8568 37.3264C64.3777 37.3264 63.9372 37.2582 63.5355 37.1412C64.2373 37.6773 65.1182 37.9989 66.183 37.9989Z" fill="white"/>
    <path fill-rule="evenodd" clip-rule="evenodd" d="M58.8745 22.5206C61.9141 19.0117 67.1898 17.6667 71.1683 19.2652C67.1123 16.7115 60.9412 17.9347 57.5484 21.8481C52.1856 28.0423 53.3714 38.6908 60.5928 41.6832C54.5669 38.0037 53.8554 28.3152 58.8745 22.5206Z" fill="white"/>
    <path fill-rule="evenodd" clip-rule="evenodd" d="M34.1516 22.9837C34.2919 21.4973 34.8679 20.1912 35.8892 19.0898C36.1215 18.8462 37.3121 18.7341 39.4418 18.7341C41.9828 18.7341 44.0931 19.0801 45.7774 19.7721C43.9333 18.6317 41.3778 18.0615 38.1204 18.0615C35.986 18.0615 34.7953 18.1687 34.5678 18.4173C33.3723 19.7039 32.7915 21.2634 32.7915 23.0666H32.8399C33.1981 23.0666 33.6337 23.0276 34.1516 22.9837Z" fill="white"/>
    <path fill-rule="evenodd" clip-rule="evenodd" d="M39.9065 23.1152C41.8619 23.4759 42.8396 24.2264 42.8396 25.3668C42.8057 25.4009 42.7718 25.4204 42.7379 25.4204C40.7051 25.4204 38.4545 25.9711 35.9861 27.1017C28.0871 30.7276 28.2371 40.1773 34.2533 42.4532C29.5875 39.3829 30.0376 31.1126 37.3122 27.7792C39.7807 26.6436 42.0313 26.0881 44.0593 26.0881C44.0932 26.0881 44.127 26.0734 44.1609 26.0393C44.1609 24.8453 42.7621 23.3784 39.9065 23.1152Z" fill="white"/>
    <path fill-rule="evenodd" clip-rule="evenodd" d="M43.7542 31.0883C43.7542 33.0962 43.9381 35.4696 41.9731 36.7123C39.6547 38.189 37.8348 38.0818 36.7991 37.2435C37.7235 38.4132 40.6518 39.0662 43.2993 37.3849C45.2643 36.1421 45.0756 33.7687 45.0756 31.7609C45.0756 31.0347 45.1675 29.9528 43.701 29.9674C43.7349 29.9674 43.7542 30.3427 43.7542 31.0883Z" fill="white"/>
    <path fill-rule="evenodd" clip-rule="evenodd" d="M45.3321 40.8056C45.182 40.2013 44.5673 39.2997 43.8365 40.0844C43.8946 40.0259 43.972 39.9918 44.0059 40.1331C44.1462 40.7082 44.9691 42.9743 45.7822 42.9743C45.908 42.9743 46.0629 42.9597 46.2372 42.9305C45.7822 42.2238 45.424 41.1907 45.3321 40.8056Z" fill="white"/>
    <path fill-rule="evenodd" clip-rule="evenodd" d="M16.3838 29.0219C17.0856 32.6965 16.2966 37.6187 16.2966 42.5166C16.5048 42.7018 17.0372 42.8431 17.7245 42.9357C17.7729 38.1987 18.4843 33.4763 17.8067 29.9235C17.3808 27.6817 10.7741 14.036 7.5071 10.9072C5.88085 9.34767 10.8951 7.80278 13.3152 7.80765C13.2087 7.60784 13.1022 7.4129 12.9957 7.23258C12.3133 6.03858 3.8093 8.35348 5.81792 10.2785C9.08012 13.4073 15.953 26.785 16.3838 29.0219Z" fill="white"/>
    <path fill-rule="evenodd" clip-rule="evenodd" d="M19.8057 21.9306C20.0913 23.1685 21.1706 24.0506 21.7804 22.4375C24.1472 16.2043 30.3231 7.70008 31.1362 7.46128C31.7364 7.28584 34.2145 7.67084 35.865 8.30927C35.139 7.17375 30.5554 6.31602 29.7133 6.55969C28.9001 6.79849 21.1561 18.5095 20.5559 21.8283C20.4833 22.2474 20.0622 22.5008 19.8057 21.9306Z" fill="white"/>
</svg>
