<svg width="69" height="79" viewBox="0 0 69 79" fill="none" xmlns="http://www.w3.org/2000/svg">
    <path fill-rule="evenodd" clip-rule="evenodd" d="M57.0999 21.425C62.2851 17.858 67.125 21.7673 66.3424 27.9444C65.9107 31.3317 64.6447 35.328 63.3843 38.6863C69.3349 47.4503 71.3089 58.7953 62.8779 66.7763C60.2249 69.2878 56.3863 71.225 52.7895 72.3561C47.6964 79.583 37.3548 80.7663 29.8388 76.625C28.3023 75.7781 27.1743 75.0125 25.7931 73.9743C24.9989 73.3769 23.5602 72.8781 22.6509 72.5359C15.8716 69.978 8.92541 65.2973 4.64374 59.3638C-1.34715 51.0696 -1.70971 41.6849 4.54015 34.3304C3.11292 31.4825 3.61936 27.6544 6.10549 25.2937C6.77306 24.6615 7.46941 24.1917 8.20604 23.8727C8.34416 22.4807 8.60313 21.1002 9.0405 19.8068C11.0202 13.9545 17.5751 10.9094 22.1445 16.1817C22.5128 16.5993 22.8639 17.0459 23.2034 17.4984C25.9773 14.8825 29.2 12.5798 32.8487 11.9302C34.0399 9.62176 35.5592 7.35391 37.0325 5.32966C38.6726 3.0792 40.9861 0.440141 43.9039 0.051532C46.8044 -0.337077 48.9394 1.51897 50.0904 4.04203C51.5119 7.1451 51.932 11.936 52.0298 15.8047C54.0901 17.2315 55.7533 19.2442 57.0999 21.425Z" fill="white"/>
    <path fill-rule="evenodd" clip-rule="evenodd" d="M49.9465 68.4352C64.1555 62.9018 67.0099 53.7144 59.1314 40.4843C57.6466 37.9844 56.7719 33.5531 55.5806 28.3794C53.3937 18.8672 46.9482 15.9323 36.3246 16.4891C28.918 16.8719 21.4884 27.0164 13.1035 34.4231C-0.48968 46.1452 4.63796 57.7629 28.4749 69.2762C35.0643 73.8757 44.7844 76.306 49.9465 68.4352Z" fill="#F2C1A2"/>
    <path fill-rule="evenodd" clip-rule="evenodd" d="M33.9709 16.0077C34.414 16.1353 34.8168 16.4427 35.1967 16.9415C35.9506 17.9623 35.7261 18.7686 34.5349 19.3602C32.1408 20.9726 30.7021 26.5059 27.2836 28.0256C23.8134 28.101 21.3043 29.6148 21.7474 32.2017C20.5619 34.8059 20.3029 37.1318 28.1008 41.9227C30.7596 43.5584 27.9109 45.2926 24.9644 44.9504C13.3912 43.0189 13.2243 51.2203 18.7433 58.1457C22.1387 62.1884 27.8131 65.0943 32.3825 70.0708C29.3899 69.2936 27.3067 68.9804 18.4613 64.3924C7.91254 55.9184 1.36918 44.9388 11.118 35.3396C11.8374 34.8639 13.7768 33.0659 15.7162 31.4825C17.6614 29.899 19.9058 27.927 21.8395 25.9375C26.57 21.048 30.2877 16.0077 33.9709 16.0077Z" fill="#D18F78"/>
    <path fill-rule="evenodd" clip-rule="evenodd" d="M45.7397 51.6902C50.9997 53.3026 52.8413 50.4431 49.2675 47.6765C48.0302 46.7194 46.5857 44.5792 48.4906 42.4622C48.5999 42.7986 48.6747 42.9494 48.7898 43.1582C49.7106 44.8228 50.7465 45.5594 51.7824 46.296C54.3721 48.1289 53.6815 50.9999 51.299 52.5602C49.5034 53.7318 48.2604 53.3664 46.108 53.1866L45.2045 52.6936C45.2045 52.4036 45.7282 52.334 45.7397 51.6902Z" fill="white"/>
    <path fill-rule="evenodd" clip-rule="evenodd" d="M57.474 53.5404C45.2045 61.6084 34.2644 53.7376 23.4796 49.3121C20.8957 48.2507 20.2684 51.1972 21.3791 53.2968C23.7156 57.6933 38.7935 71.631 53.7103 61.2372C54.9706 60.3614 57.6754 57.6063 58.2337 56.2259C58.6768 55.1355 58.7516 52.6994 57.474 53.5404Z" fill="white"/>
    <path fill-rule="evenodd" clip-rule="evenodd" d="M45.7454 16.9647C53.1405 19.4588 56.5417 33.1877 57.8193 39.2837C63.9253 47.7693 65.0187 57.2931 58.3085 63.6501C55.3735 66.4283 46.5684 70.2506 44.1628 69.6358C57.0769 64.0967 64.6677 55.5473 55.1145 40.9657C53.4455 38.4194 54.9821 24.8413 45.7627 18.67C45.826 18.1654 45.7915 17.4809 45.7454 16.9647Z" fill="white"/>
    <path fill-rule="evenodd" clip-rule="evenodd" d="M53.0427 39.3707C51.0515 25.752 41.5501 27.0222 31.6171 35.705C34.3449 37.155 35.9506 38.1004 38.1662 38.9647C45.0951 41.6733 47.2475 40.6235 53.0427 39.3707Z" fill="white"/>
    <path fill-rule="evenodd" clip-rule="evenodd" d="M47.9438 20.439C48.2488 20.2012 47.4086 9.26215 45.8951 5.20205C45.4462 4.00142 45.2275 3.99562 44.2549 4.83084C42.7241 6.14167 34.7938 17.7304 37.5965 19.2558C40.5545 20.874 46.39 21.6744 47.9438 20.439Z" fill="white"/>
    <path fill-rule="evenodd" clip-rule="evenodd" d="M35.6801 19.1978C34.8456 15.0159 40.7502 8.12532 42.2119 6.12427C42.914 5.15564 44.1801 3.1256 45.3138 4.54083C43.7945 6.22867 39.4956 17.1561 40.1229 20.3462L38.4885 20.1838C38.0166 20.1838 38.5575 20.0388 37.3202 20.0388C37.2224 20.0388 36.175 19.2616 35.6801 19.1978Z" fill="#B3B3B3"/>
    <path fill-rule="evenodd" clip-rule="evenodd" d="M57.8481 36.9172C59.8623 34.1505 61.1054 30.9373 61.5888 27.289C62.0952 24.7717 61.6521 23.8205 60.2594 24.4411C59.7184 24.7253 58.1819 25.6881 55.6497 27.3296L57.8481 36.9172Z" fill="#D18F78"/>
    <path fill-rule="evenodd" clip-rule="evenodd" d="M57.0194 36.7142C58.5214 34.3884 60.035 30.1427 60.6738 26.825C60.8579 25.8506 60.5817 24.5513 59.6379 25.2183C56.9733 27.0976 56.323 27.7472 55.3217 27.9792C54.9994 28.0546 54.9994 27.0686 54.6138 27.0744C54.7577 26.9758 57.2266 25.2879 58.6998 24.1453C61.6406 21.8717 63.3556 23.8611 62.9412 27.1324C62.383 31.5753 59.753 38.2861 59.4019 39.0749C58.6595 40.7743 56.277 38.4079 57.0194 36.7142Z" fill="black"/>
    <path fill-rule="evenodd" clip-rule="evenodd" d="M47.9726 17.2083C55.3677 19.6966 58.7631 33.4255 60.0407 39.5273C66.1524 48.0071 67.2459 57.5309 60.5356 63.8879C56.8064 67.4201 49.0891 70.3202 44.1628 69.6358C58.5272 64.9377 67.9422 57.3859 57.3416 41.2035C55.6727 38.6572 55.7303 23.4435 47.9899 18.9078C48.0532 18.4032 48.0186 17.7187 47.9726 17.2083Z" fill="black"/>
    <path fill-rule="evenodd" clip-rule="evenodd" d="M32.6415 28.8144C37.7576 21.9934 52.5478 19.5864 53.5376 32.2887C49.7279 23.9249 43.4205 24.0873 32.6415 28.8144Z" fill="black"/>
    <path fill-rule="evenodd" clip-rule="evenodd" d="M38.3216 45.6174C35.1621 48.9757 38.9489 50.0719 40.4739 49.0859C41.4235 48.4653 42.068 48.1579 42.4306 48.7321C45.7339 53.9522 54.821 50.0951 51.5522 47.4502C50.3321 46.47 48.3697 45.2752 48.7898 43.1581C50.3782 45.368 52.0413 45.5884 53.2038 46.412C55.7936 48.2507 55.1087 51.1159 52.7204 52.6762C49.2329 54.9556 43.9557 55.0542 41.2106 51.4987C35.8009 53.7492 32.2731 47.2066 38.3216 45.6174Z" fill="black"/>
    <path fill-rule="evenodd" clip-rule="evenodd" d="M55.4598 55.205C45.5728 62.5886 34.1493 57.6063 27.6001 55.4197C26.2708 54.973 25.3097 56.4695 25.6032 57.8499C23.4796 58.4415 19.313 51.0289 20.8554 48.6683C21.5344 48.6973 22.2711 48.8829 23.025 49.2425C35.2254 55.1064 42.7644 60.5296 55.4598 54.335C55.4828 54.944 55.4828 54.5902 55.4598 55.205Z" fill="#B3B3B3"/>
    <path fill-rule="evenodd" clip-rule="evenodd" d="M57.1344 54.2074C45.6821 62.2754 34.4888 55.6169 24.4234 51.1972C23.376 50.7389 22.8753 51.6612 23.4911 52.9024C25.6722 57.3047 40.3588 69.6358 53.5204 60.2338C54.7116 59.387 57.2438 57.2177 57.7675 55.8373C58.1818 54.7468 58.3315 53.3606 57.1344 54.2074ZM53.6585 62.2928C44.088 69.8794 30.8287 65.2799 22.72 57.5367C15.8198 50.9535 19.9346 45.9306 24.7687 48.2507C37.0152 54.1378 44.5657 59.5842 57.3474 53.2794C59.189 52.3688 59.3213 54.3234 58.7976 56.0171C58.2221 57.8905 55.126 61.127 53.6585 62.2928Z" fill="black"/>
    <path fill-rule="evenodd" clip-rule="evenodd" d="M37.3605 31.2447C44.8247 28.1648 49.6185 29.2088 51.7306 34.3767C48.5884 42.2301 42.3155 39.7303 39.9445 37.8394C38.5345 36.7142 37.6713 34.516 37.3605 31.2447Z" fill="#7F86E8"/>
    <path d="M52.0989 35.2236C50.8501 38.6167 47.7539 41.0121 44.0938 40.7453C39.7431 40.4321 36.4858 36.4648 36.3592 31.9233L38.5345 30.8619C38.3158 32.9151 38.8741 34.9974 40.1574 36.5982C41.2681 37.9786 42.8392 38.8951 44.6232 39.0227C47.7884 39.2547 50.3782 36.981 51.1839 33.9185C51.4198 34.3014 51.7766 34.7538 52.0989 35.2236Z" fill="black"/>
    <path fill-rule="evenodd" clip-rule="evenodd" d="M49.2214 30.7864C49.5092 31.4709 49.653 32.2307 49.6185 33.0311C49.4919 35.6122 47.5007 37.5668 45.1699 37.3986C42.8392 37.2304 41.0494 34.9973 41.176 32.4163C41.2278 31.3027 41.6307 30.3108 42.2522 29.551C43.6276 29.0116 45.5498 28.6752 49.2214 30.7864Z" fill="black"/>
    <path fill-rule="evenodd" clip-rule="evenodd" d="M54.8037 39.9159C52.0816 38.5993 49.7566 44.1616 37.4123 40.3915C33.9133 39.3185 31.7207 38.0772 28.6245 36.8418C26.6333 36.0472 25.5917 36.0646 24.245 36.2502C25.6722 34.5508 27.5944 34.284 29.5108 34.6842C33.3263 31.4187 38.6151 28.1474 43.1097 27.753C48.5481 27.2716 53.5319 30.6415 53.388 39.0227C54.0901 38.9763 54.6483 39.4345 54.8037 39.9159ZM52.6686 39.0633C50.8156 27.0918 41.9702 28.2054 32.7163 35.8384C35.26 37.1144 36.7505 37.9438 38.8165 38.7095C45.2678 41.0875 47.2705 40.1653 52.6686 39.0633Z" fill="black"/>
    <path fill-rule="evenodd" clip-rule="evenodd" d="M49.5667 68.6788C49.4804 68.934 50.9076 68.47 50.7868 68.6962C46.7468 76.3001 37.09 76.3117 31.4847 73.2261C26.7427 70.6102 29.0562 70.9002 23.8537 68.934C17.5866 66.5675 11.2331 62.2522 7.41187 56.9625C1.2023 48.3609 2.49141 39.8695 9.43185 33.9243L18.7088 27.0338C22.766 22.7939 29.0619 13.8037 36.1175 14.9231C35.893 15.0101 35.4211 16.8951 35.1967 16.9415C29.9194 18.0842 26.8175 21.7557 22.6222 26.651C19.221 30.6125 16.05 33.2979 12.2172 36.5866C6.37023 41.6153 7.15866 49.0163 10.6346 54.5728C13.7193 59.4971 19.4685 63.2672 25.022 65.7439C28.9641 67.4955 31.151 69.1776 32.5667 70.0998C37.9706 73.5857 43.478 74.5659 49.5667 68.6788Z" fill="black"/>
    <path fill-rule="evenodd" clip-rule="evenodd" d="M16.683 35.357C18.116 34.5218 19.7044 33.4081 21.7474 32.2017C24.245 32.2481 26.2995 30.4733 27.2836 28.0256C23.8594 27.1034 21.0741 22.6373 19.29 20.468C16.5852 17.1735 14.0703 17.771 13.3625 21.8542C12.3669 29.1102 13.4718 33.8547 15.509 36.0878L16.683 35.357Z" fill="#F2C1A2"/>
    <path fill-rule="evenodd" clip-rule="evenodd" d="M16.591 36.778C18.4959 36.343 20.0554 36.4358 20.8266 33.3037C16.7521 30.7981 16.2399 27.637 16.8269 23.6929C15.9752 22.6605 14.7091 22.5967 14.2084 24.0003C12.856 28.8144 13.1898 33.1181 16.0212 36.9056L16.591 36.778Z" fill="#D18F78"/>
    <path fill-rule="evenodd" clip-rule="evenodd" d="M27.2836 28.0256C19.831 30.7633 16.1075 15.9381 14.1278 24.3425C13.5293 26.883 12.8963 31.2505 15.6241 36.0182C14.5077 35.0264 13.9207 35.9254 12.7524 30.8619C12.0791 27.9618 11.8489 24.4875 13.0402 20.9436C14.1451 17.6898 16.0788 16.6689 18.8929 19.917C21.0223 22.3647 24.4407 25.5721 27.2836 28.0256Z" fill="white"/>
    <path fill-rule="evenodd" clip-rule="evenodd" d="M46.4648 36.0472C46.108 36.1864 45.7224 36.2502 45.3196 36.2212C43.6909 36.0994 42.4364 34.5391 42.5227 32.7353C42.5515 32.2249 42.6781 31.7493 42.891 31.3317C42.8047 33.7619 44.1686 35.7572 46.4648 36.0472Z" fill="white"/>
    <path fill-rule="evenodd" clip-rule="evenodd" d="M18.7433 58.1457C9.24768 49.6775 15.5263 40.6061 24.9644 44.9504C16.0212 44.3646 13.9264 49.0801 18.7433 58.1457Z" fill="black"/>
    <path fill-rule="evenodd" clip-rule="evenodd" d="M33.4472 53.697C33.4472 56.1215 33.4874 59.3406 32.63 61.7998C32.5034 62.1652 32.3365 62.2696 32.1696 62.606C31.9739 60.6688 32.2271 57.0611 31.853 54.045C31.761 53.6042 32.0372 53.1692 32.4746 53.0706C32.912 52.972 33.3493 53.2562 33.4472 53.697Z" fill="black"/>
    <path fill-rule="evenodd" clip-rule="evenodd" d="M34.46 62.5596C35.8067 61.011 38.4079 57.3801 39.5647 56.1331L39.9215 56.4463C39.9445 57.2931 36.0426 63.3658 35.893 63.5979C35.6283 63.9575 34.9953 63.9749 34.6327 63.7081C34.2701 63.4412 34.1953 62.925 34.46 62.5596Z" fill="black"/>
    <path fill-rule="evenodd" clip-rule="evenodd" d="M24.0091 56.4057C24.0494 56.3767 29.6662 52.0962 30.2647 52.247C30.2532 52.2876 30.2647 52.2528 30.2417 52.3398L30.2704 52.3688L30.2877 52.2354L30.4373 52.1716L30.5812 52.334C30.351 53.378 25.7989 57.6875 25.4018 58.0877C24.9414 58.4763 24.2565 58.4125 23.871 57.9485C23.4854 57.4845 23.5487 56.7943 24.0091 56.4057ZM30.3395 52.45L30.3798 52.5022L30.4373 52.479L30.3395 52.45Z" fill="black"/>
    <path fill-rule="evenodd" clip-rule="evenodd" d="M47.3511 19.8126C47.6216 19.6038 46.8734 9.85376 45.5268 6.23448C45.1297 5.16725 44.8247 5.16145 44.065 5.90387C42.7759 7.1567 35.6283 17.3997 38.1317 18.7628C40.7674 20.2012 45.9699 20.9146 47.3511 19.8126ZM48.5481 20.7232C48.4503 22.2951 40.7099 23.4203 35.1506 20.0098C32.0084 18.0842 37.9187 9.58696 39.7948 7.0059C43.5873 1.79737 45.757 2.44119 46.977 5.11505C48.8243 9.15775 48.7092 18.2524 48.5481 20.7232Z" fill="black"/>
    <path fill-rule="evenodd" clip-rule="evenodd" d="M42.6838 56.7653C43.3514 59.3231 44.1456 62.7104 43.5068 65.4597C42.914 63.7312 42.2868 60.2338 41.2739 57.5309C41.0725 57.1481 41.1991 56.6377 41.6019 56.4347C41.999 56.2317 42.4882 56.3825 42.6838 56.7653Z" fill="black"/>
    <path fill-rule="evenodd" clip-rule="evenodd" d="M45.17 64.0039C46.1253 62.2348 47.8575 58.0645 48.7093 56.5507L48.8589 56.6087C49.0833 57.4207 46.6605 64.2475 46.5742 64.5085C46.4073 64.9319 45.9296 65.1349 45.5152 64.9609C45.0951 64.7927 45.0031 64.4215 45.17 64.0039Z" fill="black"/>
    <path fill-rule="evenodd" clip-rule="evenodd" d="M50.758 56.5507C51.4025 58.3081 52.237 60.5122 51.8514 62.4552C51.2817 61.2836 50.6659 58.952 49.7336 57.1133C49.5552 56.8523 49.5667 56.5159 49.8775 56.3651C50.1883 56.2085 50.5853 56.2897 50.758 56.5507Z" fill="black"/>
    <path fill-rule="evenodd" clip-rule="evenodd" d="M53.0369 60.7442C53.6412 59.0505 54.2685 56.1505 54.8555 54.5322L54.9821 54.567C55.2238 55.1877 54.3203 60.8892 54.2743 61.1038C54.1764 61.446 53.8196 61.649 53.4801 61.5504C53.1348 61.4518 52.9391 61.0922 53.0369 60.7442Z" fill="black"/>
    <path fill-rule="evenodd" clip-rule="evenodd" d="M56.4093 54.3292C56.7719 55.4371 57.169 57.0611 56.887 58.2617C56.8525 58.1805 56.7028 58.2559 56.6798 58.1573C56.5244 57.3569 56.1734 55.7039 55.69 54.6541C55.5288 54.3988 56.2367 54.0566 56.4093 54.3292Z" fill="black"/>
    <path fill-rule="evenodd" clip-rule="evenodd" d="M27.2836 28.0256C21.5978 29.5046 16.7751 14.1053 14.7954 22.5097C14.1969 25.0501 13.5696 31.5057 16.2917 36.2792C15.8659 36.5982 13.3049 37.0854 12.1367 32.0161C11.4633 29.116 11.0893 24.0989 12.2863 20.5492C13.3855 17.2953 16.7464 14.8303 19.5663 18.0842C21.6898 20.5318 24.4407 25.5721 27.2836 28.0256Z" fill="black"/>
    <path fill-rule="evenodd" clip-rule="evenodd" d="M15.44 24.9341C15.6587 23.6059 16.5795 22.4865 17.2873 24.6383C17.9146 26.535 19.0771 30.2297 21.7474 32.2017C16.1363 36.9056 14.6746 29.522 15.44 24.9341Z" fill="black"/>
    <path d="M47.7194 33.8605C48.4409 33.8605 49.0258 33.2035 49.0258 32.3931C49.0258 31.5827 48.4409 30.9257 47.7194 30.9257C46.9979 30.9257 46.413 31.5827 46.413 32.3931C46.413 33.2035 46.9979 33.8605 47.7194 33.8605Z" fill="white"/>
    <path fill-rule="evenodd" clip-rule="evenodd" d="M16.5046 30.1021C14.6516 30.4385 14.3408 30.8039 14.3408 31.4071C14.3408 32.6135 12.9826 33.8895 12.1424 34.1215C6.6004 35.0496 6.20907 29.5626 8.45349 27.434C9.71957 26.2334 10.813 26.3436 12.1136 26.5582C12.5683 28.8202 15.8083 28.4026 17.0571 29.058C18.3002 29.7134 16.873 30.0324 16.5046 30.1021Z" fill="black"/>
    <path fill-rule="evenodd" clip-rule="evenodd" d="M17.4715 29.3016C14.3753 29.2784 10.7497 29.8816 11.095 30.7111C11.1583 30.8561 11.5727 30.9895 11.9237 30.9953C11.9928 31.3607 12.0618 31.7029 12.1367 32.0161C12.1539 32.1031 12.1712 32.1785 12.1942 32.2597C9.58146 33.1123 8.59162 30.7343 9.29372 29.1334C10.6174 26.1173 15.2155 27.1672 17.3506 28.3504C18.0527 28.739 17.8455 29.3016 17.4715 29.3016Z" fill="#FFDB59"/>
    <path fill-rule="evenodd" clip-rule="evenodd" d="M11.5209 28.1822C11.7511 28.0952 11.987 28.0198 12.2345 27.956C13.5294 27.6312 15.0199 27.6602 16.3378 27.898C16.3723 27.9038 16.4068 27.9154 16.4413 27.9212C16.4298 27.9154 16.4126 27.9096 16.4011 27.9038C16.0155 27.7472 15.6011 27.608 15.1638 27.492C14.8415 27.405 14.5077 27.3296 14.1739 27.2774C13.9552 27.2426 13.7308 27.2136 13.5121 27.1962C13.4718 27.1904 13.4315 27.1904 13.3912 27.1846C13.2243 27.173 13.0574 27.1672 12.8963 27.1672C12.7121 27.1672 12.5222 27.173 12.3438 27.1846C12.2805 27.1904 12.2172 27.1962 12.1539 27.2078C11.918 27.231 11.682 27.2774 11.4576 27.3354C11.1698 27.4166 10.8936 27.521 10.6404 27.6602C10.0649 27.9676 9.59298 28.449 9.29372 29.1334C8.99447 29.812 9.00598 30.6299 9.30523 31.2853C9.18438 29.7946 10.2145 28.6984 11.5209 28.1822Z" fill="white"/>
</svg>
