<svg width="512" height="403" viewBox="0 0 512 403" fill="none" xmlns="http://www.w3.org/2000/svg">
    <path fill-rule="evenodd" clip-rule="evenodd" d="M120.36 48.6611C95.085 46.7242 87.9946 40.0963 99.0999 28.755C107.186 25.4634 115.864 22.978 125.146 21.2986C144.751 18.1526 144.539 26.2024 124.509 45.4591L120.36 48.6611Z" fill="#8A462D"/>
    <path fill-rule="evenodd" clip-rule="evenodd" d="M90.4106 109.812L504.852 88.2158L473.459 381.31L52.4088 346.558L90.4106 109.812Z" fill="#7F86E8"/>
    <path fill-rule="evenodd" clip-rule="evenodd" d="M107.555 169.945C53.214 171.994 22.5374 153.532 15.5365 114.571C15.6931 93.6793 11.4992 78.5762 4.88974 72.7768C20.7257 69.2389 35.2084 69.6867 47.2978 74.6129C79.4394 81.0168 108.461 67.8282 139.093 30.9941C140.032 51.9974 133.747 69.8435 120.226 84.5547C152.312 132.887 149.46 161.268 111.693 169.687L107.555 169.945Z" fill="#8A462D"/>
    <path fill-rule="evenodd" clip-rule="evenodd" d="M74.6978 156.667C20.3456 158.715 21.162 156.79 14.1611 117.828C14.3177 96.9372 17.08 84.9689 4.37547 73.3029C20.2002 69.7539 24.5171 68.7686 37.1657 72.0042C60.2151 77.9156 92.8823 81.8677 123.503 45.0448C118.47 63.9545 96.6847 84.6554 75.4807 89.5704C75.9727 90.2981 101.963 90.4548 102.444 91.205C113.751 108.995 121.971 128.89 110.161 142.336C96.9196 137.152 94.4592 124.893 100.498 109.958L97.8031 107.013C75.0445 120.829 72.6959 136.581 90.735 154.304C86.1498 155.469 80.8376 156.286 74.6978 156.667ZM36.2822 123.751C39.5366 136.727 39.6373 142.594 36.5842 141.328C23.8349 126.561 20.0101 113.697 25.121 102.737C23.7343 94.9555 27.5367 88.5963 32.9048 92.0111C35.3987 101.326 33.1061 107.708 36.1145 114.962L36.2822 123.751ZM65.2029 131.095C66.2206 141.731 64.6214 146.445 60.4164 145.213C49.3782 129.954 48.0809 112.768 56.5357 93.6568C58.8283 87.8014 62.5301 90.5108 65.0687 94.8212C63.9168 107.002 63.2905 113.921 68.2672 119.262L65.2029 131.095Z" fill="#D18F78"/>
    <path fill-rule="evenodd" clip-rule="evenodd" d="M1.47822 72.6424C12.1921 83.2784 12.6395 95.8289 10.3804 108.682C20.3449 96.1759 15.4577 78.8225 6.33189 68.1417C5.20235 67.0445 2.42882 67.0781 1.33283 68.2201C0.236835 69.3509 2.95445 70.3361 1.47822 72.6424Z" fill="black"/>
    <path fill-rule="evenodd" clip-rule="evenodd" d="M468.091 382.105C298.224 371.144 213.832 363.654 214.928 359.646C195.1 362.826 177.24 369.386 161.381 379.35C132.629 391.005 113.997 388.9 105.475 373.036C89.527 340.803 84.9082 297.554 91.6519 243.3C93.0722 220.594 88.0508 207.272 76.5764 203.331C48.6846 190.601 25.9595 176.181 8.43488 160.081C3.08914 154.674 3.90555 147.285 10.8729 137.914C7.8869 128.465 6.94745 120.605 8.04346 114.335C14.7312 96.4558 20.8151 85.4951 24.9418 85.5175C31.4731 87.2193 31.4395 101.136 26.1944 123.225C32.0881 135.988 36.3715 142.862 39.0667 143.847C35.0406 127.367 34.7498 115.343 38.2056 107.775C45.4078 93.5449 51.7824 85.3832 57.3295 83.3008C65.1692 85.316 64.912 93.0747 56.569 106.599C52.7107 117.246 54.9138 129.539 63.1673 143.444C63.1897 137.936 65.2474 129.551 69.3518 118.288C76.8113 106.89 86.4627 100.565 98.2949 99.3107C101.583 104.035 99.6705 108.872 92.5354 113.854C84.6621 123.303 84.1477 134.958 91.0032 148.807C106.917 161.85 116.502 170.214 119.745 173.886C135.995 224.569 146.038 264.549 150.556 287.657C169.915 250.543 186.914 230.671 201.564 228.028C217.109 248.92 234.802 263.082 254.619 270.516C274.246 296.435 301.422 297.879 336.147 274.849C375.368 262.008 405.91 240.635 427.785 210.742C445.12 207.171 465.429 216.038 488.702 237.321L468.091 382.105Z" fill="#F2C1A2"/>
    <path fill-rule="evenodd" clip-rule="evenodd" d="M116.591 172.632C97.5904 156.924 86.2614 148.684 85.02 144.116C87.7824 156.79 84.8299 162.869 80.9045 164.548C74.4627 168.221 75.1114 167.146 61.5793 163.171C55.4171 169.016 48.4945 168.915 40.8113 162.869C37.5681 165.634 32.6697 166.228 26.1161 164.649C21.7098 164.358 20.1329 166.418 21.4078 170.841C31.227 178.498 49.7247 189.067 76.8896 202.536C87.2567 211.101 81.7768 208.66 88.2968 207.54C84.9305 200.599 112.688 201.036 114.97 209.533C122.351 237.119 136.151 288.463 150.757 302.548C149.37 271.334 140.054 230.111 122.798 178.857L116.591 172.632Z" fill="#D18F78"/>
    <path fill-rule="evenodd" clip-rule="evenodd" d="M7.92009 130.771C3.96111 119.228 9.1391 103.117 19.2043 91.2722C22.2686 88.977 21.3627 91.093 22.5146 93.7016C11.7896 113.082 8.82597 120.706 10.6153 135.742L7.92009 130.771Z" fill="white"/>
    <path fill-rule="evenodd" clip-rule="evenodd" d="M36.1141 127.401C32.9938 115.847 38.5185 101.774 49.4449 89.9287C52.6658 87.6224 51.6145 89.7384 52.5763 92.347C40.4421 111.727 37.7469 117.325 38.4514 132.361L36.1141 127.401Z" fill="white"/>
    <path fill-rule="evenodd" clip-rule="evenodd" d="M21.2064 161.19C26.787 166.418 34.4589 166.541 40.3079 163.082C47.991 169.43 53.0236 168.377 61.5902 163.698C67.1708 167.023 75.9612 169.676 80.9043 164.425C74.7981 163.922 71.5772 164.033 67.2044 160.205C62.6192 156.174 59.3647 158.38 56.6807 159.611C53.0013 161.291 50.6527 162.746 46.0227 160.081C41.7506 157.63 39.827 158.122 37.6574 159.969C36.17 161.246 29.7171 163.944 21.2064 161.19Z" fill="white"/>
    <path fill-rule="evenodd" clip-rule="evenodd" d="M65.024 136.391C64.0175 124.479 69.9447 113.664 82.8059 103.957C86.3958 102.278 88.42 102.804 88.9121 105.536C75.503 114.828 67.8087 126.92 65.818 141.844L65.024 136.391Z" fill="white"/>
    <path fill-rule="evenodd" clip-rule="evenodd" d="M431.554 376.227C418.771 342.259 414.958 315.949 421.165 303.802C428.714 333.717 443.163 359.456 455.565 376.529L431.554 376.227Z" fill="white"/>
    <path fill-rule="evenodd" clip-rule="evenodd" d="M152.792 288.307C152.199 293.513 152.993 300.902 153.989 306.276C178.749 265.859 200.076 247.991 214.995 247.89C211.696 237.198 202.827 228.409 192.572 230.525C177.351 242.964 167.879 255.335 164.155 267.65L152.792 288.307Z" fill="white"/>
    <path fill-rule="evenodd" clip-rule="evenodd" d="M448.542 212.31C397.601 198.192 338.451 223.774 271.092 289.068C308.77 313.755 352.9 307.686 403.495 270.864C438.824 262.881 469.959 248.506 473.358 224.323L448.542 212.31Z" fill="#D18F78"/>
    <path fill-rule="evenodd" clip-rule="evenodd" d="M431.431 372.902C422.741 351.428 418.525 330.459 418.793 310.004C411.043 331.533 391.964 331.813 365.716 317.393C355.405 323.215 321.004 330.593 258.343 332.944C241.947 345.203 227.722 339.404 215.666 315.546C213.34 346.021 218.741 362.77 231.86 365.781C240.046 366.151 307.617 371.155 434.596 380.817L431.431 372.902Z" fill="#D18F78"/>
    <path fill-rule="evenodd" clip-rule="evenodd" d="M91.7414 353.052C107.544 384.892 131.611 392.696 156.327 383.426C174.701 376.518 202.19 364.572 222.455 353.287C219.57 359.568 211.82 319.688 214.414 314.068C195.503 327.447 154.727 356.041 145.713 361.135C123.033 373.943 105.922 371.793 97.9148 350.152C93.3966 337.96 93.1841 328.007 92.3006 336.728C91.6631 343.009 92.4124 346.715 91.7414 353.052Z" fill="#D18F78"/>
    <path fill-rule="evenodd" clip-rule="evenodd" d="M91.0596 290.087C89.5162 301.764 89.136 370.282 109.289 365.77C115.261 358.605 111.045 347.958 107.936 326.73C100.297 274.625 109.725 217.28 90.1873 210.182L91.0596 290.087Z" fill="white"/>
    <path fill-rule="evenodd" clip-rule="evenodd" d="M81.2401 206.253L62.0044 340.882L95.8347 343.479C95.9577 344.42 96.1031 345.338 96.2821 346.211C97.1544 350.454 97.8365 355.694 99.6483 360.15C80.4237 357.978 65.2141 356.948 56.7481 355.593C46.0678 353.88 47.0631 348.797 47.7453 341.845C50.1721 317.012 60.5729 253.141 69.3185 198.617C72.8413 200.688 77.0016 202.312 79.283 204.495C79.9205 205.156 80.5691 205.738 81.2401 206.253ZM130.146 104.416C251.186 94.5973 458.865 81.252 498.813 81.1624C509.135 81.1512 511.394 82.7858 511.036 92.6493C509.213 143.59 480.639 389.27 480.516 389.494C478.033 394.118 474.108 395.618 469.165 395.663C465.642 395.696 304.062 381.119 182.384 368.871L192.069 363.139L211.328 355.268C213.564 354.753 215.465 353.88 217.065 352.749L459.692 371.312L490.984 100.576L136.744 115.466C134.709 111.794 132.271 108.122 130.146 104.416Z" fill="black"/>
    <path fill-rule="evenodd" clip-rule="evenodd" d="M253.556 268.277C194.954 245.617 183.189 207.977 215.666 153.801C221.795 143.568 225.407 125.408 230.317 104.215C239.342 65.2756 265.914 53.2626 309.698 55.5241C340.251 57.1027 370.883 98.6502 405.452 128.968C461.481 176.987 440.355 224.569 342.074 271.726C314.909 290.546 274.827 300.499 253.556 268.277Z" fill="#F2C1A2"/>
    <path fill-rule="evenodd" clip-rule="evenodd" d="M319.405 53.5648C317.594 54.0686 315.916 55.3561 314.35 57.3938C311.264 61.5586 312.17 64.8614 317.09 67.302C326.954 73.8963 332.893 96.5678 346.973 102.77C361.299 103.095 371.644 109.286 369.799 119.877C374.708 130.547 375.771 140.063 343.618 159.69C332.647 166.385 344.401 173.494 356.535 172.094C404.255 164.179 404.949 197.766 382.19 226.125C368.199 242.695 344.803 254.585 325.959 274.972C338.306 271.77 346.883 270.505 383.364 251.708C426.846 217.012 453.832 172.05 413.638 132.73C410.675 130.793 402.678 123.426 394.682 116.944C386.663 110.451 377.392 102.378 369.441 94.2167C349.937 74.2098 334.593 53.5648 319.405 53.5648Z" fill="#D18F78"/>
    <path fill-rule="evenodd" clip-rule="evenodd" d="M270.891 199.681C249.194 206.286 241.612 194.576 256.341 183.268C261.44 179.349 267.401 170.572 259.55 161.906C259.103 163.283 258.779 163.899 258.309 164.761C254.518 171.579 250.246 174.591 245.974 177.603C235.304 185.115 238.134 196.859 247.975 203.252C255.357 208.055 260.49 206.566 269.37 205.816L273.094 203.801C273.094 202.614 270.924 202.334 270.891 199.681Z" fill="white"/>
    <path fill-rule="evenodd" clip-rule="evenodd" d="M222.522 207.283C273.094 240.321 318.209 208.066 362.652 189.963C373.332 185.619 375.905 197.677 371.319 206.264C361.69 224.278 299.543 281.365 238.011 238.788C232.833 235.205 221.683 223.92 219.379 218.277C217.556 213.81 217.243 203.823 222.522 207.283Z" fill="white"/>
    <path fill-rule="evenodd" clip-rule="evenodd" d="M270.857 57.4833C240.382 67.6938 226.358 123.919 221.102 148.897C195.916 183.637 191.398 222.632 219.078 248.673C231.156 260.048 267.48 275.711 277.389 273.181C224.155 250.487 192.852 215.489 232.241 155.76C239.118 145.336 232.777 89.7495 270.802 64.4582C270.522 62.3982 270.679 59.5881 270.857 57.4833Z" fill="white"/>
    <path fill-rule="evenodd" clip-rule="evenodd" d="M240.785 149.244C248.994 93.4778 288.158 98.6615 329.124 134.219C317.873 140.175 311.264 144.038 302.116 147.587C273.564 158.671 264.684 154.372 240.785 149.244Z" fill="white"/>
    <path fill-rule="evenodd" clip-rule="evenodd" d="M261.799 71.7131C260.546 70.7391 264.002 25.9448 270.242 9.31908C272.088 4.39294 273.005 4.37055 277.009 7.77406C283.327 13.1704 316.028 60.6069 304.475 66.8765C292.274 73.482 268.207 76.7624 261.799 71.7131Z" fill="white"/>
    <path fill-rule="evenodd" clip-rule="evenodd" d="M312.359 66.6303C315.804 49.4895 291.457 21.2874 285.44 13.0809C282.544 9.11761 277.321 0.821541 272.658 6.59856C278.909 13.5063 296.646 58.2558 294.041 71.3325L300.784 70.6719C302.719 70.6719 300.494 70.0674 305.593 70.0674C306.018 70.0674 310.313 66.899 312.359 66.6303Z" fill="#B3B3B3"/>
    <path fill-rule="evenodd" clip-rule="evenodd" d="M220.956 139.19C212.669 127.86 207.525 114.705 205.545 99.7586C203.465 89.4473 205.288 85.5623 211.025 88.1038C213.251 89.2681 219.592 93.2091 230.037 99.9265L220.956 139.19Z" fill="#D18F78"/>
    <path fill-rule="evenodd" clip-rule="evenodd" d="M224.368 138.361C218.183 128.845 211.965 111.447 209.326 97.8664C208.554 93.8583 209.706 88.5515 213.598 91.2833C224.58 98.986 227.253 101.651 231.391 102.591C232.71 102.893 232.722 98.8628 234.31 98.8964C233.706 98.4822 223.54 91.5744 217.445 86.8945C205.333 77.5685 198.254 85.7302 199.965 99.1315C202.28 117.313 213.106 144.81 214.559 148.046C217.613 154.987 227.432 145.303 224.368 138.361Z" fill="black"/>
    <path fill-rule="evenodd" clip-rule="evenodd" d="M261.687 58.4686C231.201 68.668 217.187 124.893 211.92 149.871C186.746 184.611 182.216 223.617 209.896 249.659C225.262 264.113 257.068 275.98 277.389 273.181C218.16 253.958 179.353 223.013 223.059 156.745C229.937 146.311 229.702 84.0174 261.62 65.4436C261.34 63.3836 261.497 60.5734 261.687 58.4686Z" fill="black"/>
    <path fill-rule="evenodd" clip-rule="evenodd" d="M324.896 106.006C303.804 78.0725 242.831 68.209 238.738 120.247C254.451 85.9767 280.453 86.6485 324.896 106.006Z" fill="black"/>
    <path fill-rule="evenodd" clip-rule="evenodd" d="M301.467 174.826C314.496 188.563 298.894 193.075 292.609 189.011C288.684 186.481 286.033 185.238 284.546 187.578C270.913 208.951 233.448 193.154 246.924 182.339C251.946 178.319 260.054 173.427 258.309 164.761C251.756 173.807 244.923 174.692 240.102 178.084C229.433 185.597 232.274 197.341 242.104 203.734C256.475 213.071 278.25 213.474 289.556 198.908C311.856 208.122 326.428 181.331 301.467 174.826Z" fill="black"/>
    <path fill-rule="evenodd" clip-rule="evenodd" d="M230.821 214.09C271.573 244.33 318.69 223.92 345.676 214.963C351.167 213.138 355.126 219.251 353.907 224.905C362.664 227.346 379.853 196.983 373.478 187.321C370.682 187.433 367.652 188.183 364.543 189.672C314.239 213.676 283.16 235.888 230.809 210.53C230.731 213.004 230.709 211.571 230.821 214.09Z" fill="#B3B3B3"/>
    <path fill-rule="evenodd" clip-rule="evenodd" d="M223.92 209.992C271.137 243.042 317.269 215.78 358.772 197.677C363.088 195.785 365.157 199.58 362.619 204.663C353.638 222.677 293.068 273.181 238.805 234.69C233.907 231.208 223.45 222.319 221.303 216.687C219.592 212.209 218.988 206.544 223.92 209.992ZM238.235 243.098C277.713 274.178 332.356 255.357 365.806 223.64C394.246 196.669 377.292 176.103 357.351 185.619C306.857 209.712 275.722 232.014 223.025 206.186C215.432 202.469 214.884 210.485 217.042 217.415C219.435 225.084 232.185 238.34 238.235 243.098Z" fill="black"/>
    <path fill-rule="evenodd" clip-rule="evenodd" d="M305.448 115.959C274.66 103.364 254.91 107.64 246.198 128.789C259.137 160.955 285.005 150.722 294.79 142.963C300.606 138.362 304.151 129.36 305.448 115.959Z" fill="#7F86E8"/>
    <path d="M244.666 132.26C249.821 146.154 262.582 155.961 277.668 154.875C295.618 153.577 309.038 137.332 309.575 118.735L300.584 114.391C301.501 122.8 299.186 131.331 293.907 137.88C289.333 143.534 282.835 147.296 275.499 147.822C262.448 148.762 251.767 139.448 248.446 126.92C247.473 128.487 245.997 130.334 244.666 132.26Z" fill="black"/>
    <path fill-rule="evenodd" clip-rule="evenodd" d="M256.531 114.089C255.346 116.877 254.753 120.012 254.91 123.281C255.413 133.85 263.622 141.855 273.228 141.172C282.835 140.477 290.216 131.342 289.713 120.762C289.489 116.216 287.845 112.13 285.273 109.017C279.592 106.823 271.674 105.435 256.531 114.089Z" fill="black"/>
    <path fill-rule="evenodd" clip-rule="evenodd" d="M233.515 151.472C244.743 146.087 254.339 168.87 305.213 153.42C319.64 149.031 328.687 143.937 341.459 138.877C349.668 135.63 353.962 135.708 359.498 136.458C353.615 129.495 345.709 128.409 337.813 130.043C322.067 116.675 300.259 103.285 281.727 101.662C259.316 99.6914 238.771 113.496 239.364 147.8C236.456 147.632 234.153 149.513 233.515 151.472ZM242.328 147.99C249.977 98.9637 286.436 103.52 324.583 134.779C314.104 140.007 307.953 143.411 299.431 146.523C272.848 156.275 264.583 152.491 242.328 147.99Z" fill="black"/>
    <path fill-rule="evenodd" clip-rule="evenodd" d="M255.122 269.262C255.458 270.292 249.586 268.412 250.078 269.341C266.742 300.476 306.567 300.532 329.672 287.881C349.21 277.178 339.681 278.353 361.142 270.304C386.954 260.619 413.168 242.941 428.904 221.289C454.525 186.056 449.202 151.293 420.583 126.942L382.335 98.7173C365.616 81.3415 339.659 44.5522 310.57 49.1312C311.487 49.4783 313.422 57.1922 314.35 57.3937C336.125 62.0512 348.896 77.0983 366.209 97.1387C380.222 113.361 393.306 124.367 409.086 137.835C433.221 158.424 429.966 188.742 415.618 211.492C402.902 231.656 379.204 247.117 356.311 257.238C340.061 264.426 331.047 271.323 325.187 275.073C302.932 289.37 280.218 293.367 255.122 269.262Z" fill="black"/>
    <path fill-rule="evenodd" clip-rule="evenodd" d="M390.7 132.797C384.784 129.383 378.242 124.815 369.798 119.877C359.498 120.079 351.043 112.813 346.973 102.77C361.109 99.0085 372.583 80.7146 379.931 71.8251C391.081 58.3454 401.459 60.7749 404.378 77.5126C408.482 107.237 403.919 126.662 395.532 135.809L390.7 132.797Z" fill="#F2C1A2"/>
    <path fill-rule="evenodd" clip-rule="evenodd" d="M391.069 138.619C383.207 136.828 376.788 137.22 373.612 124.389C390.398 114.123 392.512 101.203 390.096 85.0473C393.608 80.8041 398.819 80.5466 400.888 86.3013C406.469 106.006 405.093 123.628 393.418 139.145L391.069 138.619Z" fill="#D18F78"/>
    <path fill-rule="evenodd" clip-rule="evenodd" d="M346.973 102.77C377.694 114 393.071 53.2738 401.235 87.7007C403.696 98.0904 406.29 115.97 395.062 135.518C399.67 131.443 402.074 135.126 406.905 114.391C409.668 102.513 410.629 88.2941 405.697 73.7844C401.168 60.439 393.183 56.263 381.575 69.5636C372.807 79.6062 358.715 92.7164 346.973 102.77Z" fill="white"/>
    <path fill-rule="evenodd" clip-rule="evenodd" d="M267.894 135.641C269.359 136.201 270.969 136.447 272.624 136.335C279.346 135.843 284.501 129.461 284.143 122.072C284.043 119.978 283.506 118.019 282.645 116.317C282.992 126.281 277.366 134.454 267.894 135.641Z" fill="white"/>
    <path fill-rule="evenodd" clip-rule="evenodd" d="M382.19 226.125C421.344 191.441 395.454 154.293 356.535 172.095C393.418 169.699 402.041 189 382.19 226.125Z" fill="black"/>
    <path fill-rule="evenodd" clip-rule="evenodd" d="M321.586 207.91C321.564 217.829 321.396 231.018 324.941 241.105C325.456 242.583 326.138 243.008 326.843 244.397C327.659 236.47 326.619 221.703 328.14 209.343C328.531 207.529 327.391 205.738 325.579 205.346C323.767 204.954 321.978 206.096 321.586 207.91Z" fill="black"/>
    <path fill-rule="evenodd" clip-rule="evenodd" d="M317.393 244.206C311.857 237.858 301.121 222.99 296.345 217.896L294.869 219.161C294.791 222.632 310.862 247.509 311.477 248.45C312.573 249.939 315.19 250.006 316.677 248.909C318.176 247.811 318.489 245.707 317.393 244.206Z" fill="black"/>
    <path fill-rule="evenodd" clip-rule="evenodd" d="M360.494 219.005C360.326 218.882 337.165 201.349 334.693 201.965C334.738 202.133 334.705 202.01 334.783 202.368L334.682 202.48L334.582 201.931L333.978 201.662L333.396 202.323C334.324 206.611 353.102 224.256 354.746 225.89C356.647 227.48 359.476 227.222 361.064 225.319C362.641 223.416 362.395 220.583 360.494 219.005ZM334.391 202.804L334.213 203.006L333.978 202.916L334.391 202.804Z" fill="black"/>
    <path fill-rule="evenodd" clip-rule="evenodd" d="M264.237 69.1493C263.13 68.2761 266.205 28.3632 271.763 13.54C273.407 9.16242 274.66 9.14003 277.791 12.1741C283.115 17.3241 312.572 59.2523 302.272 64.839C291.402 70.7279 269.952 73.65 264.237 69.1493ZM259.305 72.8775C259.719 79.3039 291.625 83.9278 314.552 69.9554C327.502 62.0512 303.144 27.2548 295.394 16.686C279.76 -4.64196 270.813 -1.99976 265.78 8.9497C258.164 25.5194 258.656 62.7454 259.305 72.8775Z" fill="black"/>
    <path fill-rule="evenodd" clip-rule="evenodd" d="M283.472 220.471C280.744 230.962 277.456 244.811 280.095 256.074C282.544 248.998 285.128 234.679 289.31 223.617C290.127 222.05 289.612 219.945 287.957 219.128C286.302 218.299 284.3 218.904 283.472 220.471Z" fill="black"/>
    <path fill-rule="evenodd" clip-rule="evenodd" d="M273.228 250.118C269.292 242.874 262.157 225.801 258.645 219.598L258.03 219.833C257.09 223.17 267.089 251.125 267.446 252.189C268.151 253.913 270.097 254.742 271.819 254.048C273.541 253.353 273.922 251.831 273.228 250.118Z" fill="black"/>
    <path fill-rule="evenodd" clip-rule="evenodd" d="M250.201 219.587C247.528 226.786 244.106 235.821 245.694 243.781C248.042 238.978 250.581 229.439 254.428 221.904C255.155 220.841 255.122 219.464 253.836 218.826C252.549 218.187 250.917 218.535 250.201 219.587Z" fill="black"/>
    <path fill-rule="evenodd" clip-rule="evenodd" d="M240.807 236.784C238.313 229.831 235.73 217.952 233.303 211.336L232.8 211.47C231.771 214.023 235.506 237.366 235.697 238.239C236.099 239.65 237.575 240.467 238.984 240.064C240.394 239.661 241.21 238.194 240.807 236.784Z" fill="black"/>
    <path fill-rule="evenodd" clip-rule="evenodd" d="M226.906 210.507C225.407 215.041 223.763 221.681 224.937 226.595C225.072 226.271 225.698 226.595 225.787 226.17C226.436 222.89 227.868 216.116 229.858 211.839C230.529 210.787 227.622 209.376 226.906 210.507Z" fill="black"/>
    <path fill-rule="evenodd" clip-rule="evenodd" d="M346.973 102.77C370.425 108.838 390.31 45.7613 398.474 80.1883C400.934 90.5892 403.529 117.045 392.3 136.581C394.067 137.891 404.613 139.873 409.445 119.127C412.207 107.249 413.762 86.6819 408.83 72.1722C404.3 58.838 390.422 48.7506 378.802 62.0624C370.045 72.0938 358.716 92.7164 346.973 102.77Z" fill="black"/>
    <path fill-rule="evenodd" clip-rule="evenodd" d="M395.822 90.1303C394.917 84.6779 391.114 80.0988 388.184 88.9211C385.612 96.691 380.825 111.794 369.798 119.877C392.948 139.145 398.965 108.894 395.822 90.1303Z" fill="black"/>
    <path fill-rule="evenodd" clip-rule="evenodd" d="M282.499 383.896C275.241 401.932 249.195 396.849 245.84 378.779C243.625 366.923 249.43 335.015 260.278 327.738C284.445 311.515 334.548 310.676 361.545 320.752C375.167 325.835 387.111 359.601 385.892 373.517C383.129 405.112 348.449 388.744 336.449 373.103C330.108 364.841 289.232 367.181 282.499 383.896Z" fill="#B3B3B3"/>
    <path d="M272.043 372.891C265.78 388.464 247.417 380.28 248.233 362.624C246.019 350.768 252.304 333.224 263.152 325.947C287.331 309.724 329.527 308.436 356.535 318.513C364.531 322.252 373.534 349.805 373.277 363.206C372.964 379.227 347.912 376.137 335.935 359.836C329.773 351.462 278.764 356.175 272.043 372.891Z" fill="white"/>
    <path d="M344.404 335.859C341.79 336.431 339.194 334.478 338.607 331.496C338.019 328.513 339.662 325.632 342.276 325.059C344.89 324.486 347.486 326.44 348.073 329.422C348.661 332.404 347.018 335.286 344.404 335.859Z" fill="#B3B3B3"/>
    <path d="M348.332 355.801C345.718 356.373 343.122 354.42 342.535 351.437C341.947 348.455 343.59 345.573 346.204 345.001C348.818 344.428 351.414 346.382 352.001 349.364C352.589 352.346 350.946 355.228 348.332 355.801Z" fill="#B3B3B3"/>
    <path d="M336.964 347.589C334.44 348.084 331.988 346.153 331.486 343.275C330.984 340.398 332.623 337.664 335.146 337.169C337.669 336.674 340.122 338.605 340.624 341.482C341.125 344.36 339.487 347.094 336.964 347.589Z" fill="#B3B3B3"/>
    <path d="M355.572 344.463C352.803 345.006 350.111 342.887 349.561 339.729C349.01 336.571 350.808 333.57 353.578 333.027C356.347 332.483 359.038 334.603 359.589 337.761C360.14 340.919 358.341 343.919 355.572 344.463Z" fill="#B3B3B3"/>
    <path d="M279.715 379.754C270.981 396.614 250.973 394.767 247.82 377.806C245.751 366.688 254.899 335.866 265.076 329.037C287.756 313.822 330.008 312.445 355.338 321.894C370.324 327.481 384.405 357.62 384.606 370.719C384.997 397.98 346.257 385.732 336.841 370.472C331.73 362.187 287.499 364.751 279.715 379.754ZM293.113 382.888C297.15 374.637 328.073 373.596 330.287 376.944C349.579 406.053 404.177 415.009 400.487 371.032C399.033 353.656 381.888 322.633 362.753 315.501C334.011 304.776 286.895 306.701 261.307 323.864C247.26 333.291 238.347 365.849 241.199 381.142C246.053 407.239 279.693 410.363 293.113 382.888Z" fill="black"/>
    <path d="M342.405 335.347C339.791 335.919 337.196 333.966 336.608 330.984C336.021 328.001 337.664 325.12 340.278 324.547C342.892 323.975 345.487 325.928 346.075 328.91C346.662 331.893 345.019 334.774 342.405 335.347Z" fill="black"/>
    <path d="M346.333 355.289C343.719 355.862 341.123 353.908 340.536 350.926C339.948 347.943 341.591 345.062 344.205 344.489C346.819 343.917 349.415 345.87 350.002 348.852C350.59 351.835 348.947 354.716 346.333 355.289Z" fill="black"/>
    <path d="M334.976 347.033C332.453 347.529 330.001 345.597 329.499 342.72C328.997 339.843 330.636 337.109 333.159 336.614C335.682 336.119 338.134 338.05 338.636 340.927C339.138 343.805 337.499 346.538 334.976 347.033Z" fill="black"/>
    <path d="M353.586 343.907C350.816 344.451 348.125 342.331 347.574 339.173C347.023 336.016 348.822 333.015 351.591 332.472C354.36 331.928 357.052 334.048 357.603 337.206C358.153 340.364 356.355 343.364 353.586 343.907Z" fill="black"/>
    <path fill-rule="evenodd" clip-rule="evenodd" d="M283.232 329.943L277.965 330.077C276.321 330.122 275.046 331.185 274.766 332.775C274.352 335.048 274.006 337.354 273.726 339.672C271.691 339.66 269.7 339.672 267.721 339.716C266.077 339.761 264.645 340.814 264.522 342.426L264.209 346.557C264.086 348.169 265.305 349.681 266.949 349.714C268.984 349.759 270.975 349.826 272.943 349.905C272.876 352.301 272.865 354.719 272.932 357.171C272.977 358.794 274.062 360.048 275.672 360.328L280.783 361.224C282.393 361.503 284.015 360.138 283.982 358.514C283.914 355.872 283.937 353.241 284.037 350.621C286.744 350.867 289.461 351.17 292.213 351.528C293.834 351.741 295.288 350.431 295.411 348.83L295.803 343.825C295.937 342.213 294.695 340.814 293.063 340.668C290.244 340.411 287.527 340.198 284.899 340.041C285.189 337.712 285.547 335.406 285.972 333.1C286.263 331.51 284.865 329.909 283.232 329.943Z" fill="#B3B3B3"/>
    <path fill-rule="evenodd" clip-rule="evenodd" d="M281.152 328.443L276.019 328.342C274.375 328.308 273.1 329.45 272.809 331.04C272.407 333.313 272.06 335.608 271.78 337.937C269.745 337.925 267.743 337.937 265.764 337.981C264.131 338.026 262.688 339.067 262.565 340.68L262.252 344.822C262.129 346.434 263.359 347.946 265.003 347.979C267.027 348.024 269.029 348.08 270.998 348.169C270.919 350.565 270.908 352.984 270.986 355.436C271.031 357.048 272.116 358.313 273.726 358.593L278.826 359.477C280.448 359.768 282.069 358.402 282.025 356.779C281.969 354.137 281.991 351.506 282.092 348.886C284.798 349.132 287.505 349.423 290.267 349.782C291.889 349.994 293.342 348.696 293.465 347.083L293.857 342.079C293.98 340.478 292.75 339.079 291.117 338.922C288.299 338.664 285.581 338.463 282.942 338.306C283.232 335.977 283.467 333.895 283.892 331.6C284.194 330.01 282.796 328.476 281.152 328.443Z" fill="black"/>
    <path d="M262.738 126.662C259.767 126.662 257.359 123.975 257.359 120.661C257.359 117.347 259.767 114.66 262.738 114.66C265.709 114.66 268.117 117.347 268.117 120.661C268.117 123.975 265.709 126.662 262.738 126.662Z" fill="white"/>
    <path fill-rule="evenodd" clip-rule="evenodd" d="M83.141 227.39C85.7244 250.79 76.442 298.125 85.1428 338.452C98.317 399.525 124.923 402.638 157.076 390.569C175.461 383.672 203.979 371.032 224.244 359.758L219.29 342.158C200.971 351.943 161.46 370.943 151.562 373.965C122.552 382.833 113.046 377.884 105.038 356.243C87.838 309.836 102.153 269.699 95.6554 224.401C94.3022 214.985 87.9387 203.969 78.9918 199.983C71.6666 196.759 0.919281 163.575 6.86894 149.804C9.74312 143.165 10.6266 140.724 10.7496 132.45C10.649 132.652 10.0227 132.193 9.91087 132.405C7.02551 137.723 4.07306 143.803 1.52319 148.147C-8.68741 165.567 45.1056 192.952 65.8959 204.976C73.5007 209.365 81.2621 210.328 83.141 227.39Z" fill="black"/>
    <path fill-rule="evenodd" clip-rule="evenodd" d="M219.57 367.002C211.137 347.566 207.324 327.089 217.59 305.571C218.261 335.307 222.354 341.71 232.643 366.957C228.338 366.879 223.54 366.935 219.57 367.002Z" fill="black"/>
    <path fill-rule="evenodd" clip-rule="evenodd" d="M202.604 221.759C180.125 221.423 156.64 264.907 151.35 284.746L154.146 294.934C157.065 290.87 186.981 233.492 205.344 233.167L205.176 233.201C207.905 233.929 204.304 225.286 202.604 221.759Z" fill="black"/>
    <path fill-rule="evenodd" clip-rule="evenodd" d="M350.955 317.012C386.049 287.68 395.23 272.476 415.965 230.682C414.623 232.529 403.462 236.604 402.511 238.53C385.892 272.252 369.911 292.236 338.944 313.385C336.237 315.02 344.703 316.419 350.955 317.012Z" fill="black"/>
    <path fill-rule="evenodd" clip-rule="evenodd" d="M286.022 316.665C257.236 294.005 251.98 288.295 238.358 260.205C237.329 258.112 232.9 257.585 231.435 255.469C240.953 284.959 249.978 298.159 276.55 321.457C281.102 319.229 281.806 319.319 286.022 316.665Z" fill="black"/>
    <path fill-rule="evenodd" clip-rule="evenodd" d="M434.641 202.659C450.633 203.286 474.32 212.063 490.38 226.987C488.255 233.503 487.919 242.93 487.942 249.782C474.153 233.918 450.868 216.307 432.706 215.881L434.641 202.659Z" fill="black"/>
    <path fill-rule="evenodd" clip-rule="evenodd" d="M425.862 376.081C414.365 348.551 409.198 321.928 421.176 302.693C423.569 335.586 431.264 350.466 444.035 377.414C439.271 377.761 430.257 375.611 425.862 376.081Z" fill="black"/>
    <path fill-rule="evenodd" clip-rule="evenodd" d="M144.092 24.859C141.285 22.1272 138.769 27.0645 138.556 29.0014C136.252 49.8031 127.876 65.6116 116.178 84.566C113.326 89.1787 136.141 109.409 136.901 135.204C137.449 153.622 125.762 159.387 110.541 161.772C109.166 161.985 121.77 174.826 120.472 175.576C140.849 173.091 148.208 153.286 147.883 137.119C147.525 118.926 137.326 99.4676 124.23 85.8759C135.212 67.4141 144.238 45.1009 144.092 24.859Z" fill="black"/>
    <path fill-rule="evenodd" clip-rule="evenodd" d="M62.9997 128.173C61.49 122.743 60.9532 122.743 57.9448 118.657C62.161 112.746 61.0985 107.708 64.3977 98.4375C67.4732 89.7943 64.42 79.0688 53.3036 82.9425C60.3828 83.827 63.0221 89.9287 59.298 96.4894C54.9923 104.058 56.2225 110.809 51.5813 117.571C49.4564 120.639 50.9662 120.818 51.9616 122.363C56.5133 129.371 57.1731 134.152 59.2532 143.971C60.1479 148.169 65.9634 147.833 66.2989 141.06C67.2607 121.781 71.7677 112.947 92.0547 99.9937C91.2607 100.128 91.1376 98.8965 90.3883 98.1352C74.4964 103.364 63.9392 115.701 62.9997 128.173Z" fill="black"/>
    <path fill-rule="evenodd" clip-rule="evenodd" d="M20.4348 87.9918C20.0322 88.4844 19.3835 85.3272 18.925 85.887C11.432 95.2019 1.80294 112.734 3.74889 125.968C4.65476 132.103 9.95577 145.482 20.4572 158.872C14.1832 142.235 10.0117 132.193 9.01638 124.658C7.98749 116.91 11.3202 107.764 20.4348 87.9918Z" fill="black"/>
    <path fill-rule="evenodd" clip-rule="evenodd" d="M33.1168 126.841C32.1439 124.065 31.0479 122.139 28.8671 120.325C32.4123 115.063 29.9631 107.372 32.6583 97.956C35.8121 86.8834 27.033 79.6845 20.334 85.887C27.1672 85.6743 31.3051 88.1038 28.5092 96.2991C24.964 106.622 27.4915 113.249 23.0516 119.284C21.5083 121.389 22.5148 122.743 23.9127 124.524C27.4579 129.035 30.9025 135.126 34.895 145.807C36.4272 149.904 42.5334 147.385 40.9677 140.937C33.2287 109.297 37.6797 114.279 50.9658 86.3124C50.552 86.861 51.4803 85.7974 50.0935 85.4392C39.3349 97.2619 29.8065 110.742 33.1168 126.841Z" fill="black"/>
    <path fill-rule="evenodd" clip-rule="evenodd" d="M87.6257 152.95C107.119 170.314 106.94 170.113 114.466 177.894C129.038 192.952 137.806 274.457 154.671 314.124C157.724 298.192 153.038 280.279 150.958 268.938C146.843 246.479 138.556 193.568 129.754 179.293C121.132 165.31 113.695 160.72 94.4141 146.882C94.9286 140.399 93.0609 135.406 89.9519 131.174C94.9286 124.658 95.4765 119.295 99.2678 114.828C109.97 102.188 96.3936 94.116 92.0208 100.039C96.8298 97.1948 102.008 103.89 96.0245 109.6C86.8205 118.366 89.4262 121.859 82.0674 129.226C80.703 130.592 81.4188 130.122 82.4253 132.338C87.8717 144.284 84.4495 150.117 87.6257 152.95Z" fill="black"/>
    <path fill-rule="evenodd" clip-rule="evenodd" d="M4.97875 58.9948C-1.44062 63.2827 1.15398 71.3213 8.98249 72.8215C17.2807 74.4113 31.6628 72.0826 37.2657 65.9921C41.0234 61.928 40.0616 55.177 32.5016 53.7439C25.4 52.4004 10.9396 55.0091 4.97875 58.9948Z" fill="black"/>
    <path fill-rule="evenodd" clip-rule="evenodd" d="M30.377 55.4121C39.939 56.4645 35.4768 63.4507 21.1059 65.869C5.68372 68.4552 -0.0534554 63.5066 7.99872 59.3866C13.5681 59.7561 24.3267 54.7404 30.377 55.4121Z" fill="white"/>
    <path fill-rule="evenodd" clip-rule="evenodd" d="M30.377 55.4121C34.5038 55.8711 36.0247 57.4273 35.2531 59.2523C32.8933 60.954 28.8113 62.5774 23.2307 63.5178C11.734 65.4435 5.6166 63.1932 6.58957 60.2039C7.00336 59.924 7.47308 59.6553 7.99871 59.3866C13.378 56.6324 24.3267 54.7404 30.377 55.4121Z" fill="#FFDB59"/>
    <path fill-rule="evenodd" clip-rule="evenodd" d="M20.5015 47.3064C15.4801 53.9791 20.9824 62.6558 29.5154 62.3647C38.5518 62.0512 52.4082 55.5801 55.9646 47.0265C58.3355 41.2943 54.9581 33.6811 46.727 33.9946C38.9991 34.2857 25.1762 41.0927 20.5015 47.3064Z" fill="black"/>
    <path fill-rule="evenodd" clip-rule="evenodd" d="M44.043 39.8612C52.1846 38.8423 53.5714 41.2718 46.2014 46.9929C44.4009 48.3923 42.1306 49.7918 39.413 51.0905C24.5947 58.1327 16.9675 53.8671 23.7224 46.9593C31.2602 48.1796 37.6236 40.6673 44.043 39.8612Z" fill="white"/>
    <path fill-rule="evenodd" clip-rule="evenodd" d="M45.1617 36.4913C50.3509 35.8419 52.3416 37.9579 51.1897 41.0704C49.2437 43.4439 45.8775 46.0301 41.1021 48.3028C28.9791 54.0687 21.665 52.2549 23.1189 47.6311C23.309 47.4072 23.5103 47.1833 23.7228 46.9593C28.241 42.3467 38.7423 37.2862 45.1617 36.4913Z" fill="#FFDB59"/>
    <path fill-rule="evenodd" clip-rule="evenodd" d="M55.8414 22.2615C47.8339 23.2915 44.915 33.4685 50.3726 39.6038C56.1657 46.0973 69.4518 51.796 77.9513 48.3365C83.6325 46.019 87.0212 38.3163 81.7313 32.4161C79.3828 29.7851 75.3008 26.7958 70.6596 24.8925C65.504 22.7765 59.7556 21.7689 55.8414 22.2615Z" fill="black"/>
    <path fill-rule="evenodd" clip-rule="evenodd" d="M59.8909 24.1984C62.6197 24.2431 65.9525 24.9373 69.7213 26.5047C84.3271 32.5392 84.5955 42.7498 74.2171 42.4923C72.4389 42.0668 69.7549 41.619 67.63 40.7233C52.4091 34.1514 48.383 26.0569 59.8909 24.1984Z" fill="#FFDB59"/>
    <path fill-rule="evenodd" clip-rule="evenodd" d="M64.3191 40.0292C47.924 33.1661 49.5232 23.9968 59.8904 24.1983C52.7217 26.1016 53.4487 34.2297 68.3564 40.533C70.4812 41.4286 72.4384 42.0668 74.2166 42.4922C71.5772 42.425 68.2557 41.6861 64.3191 40.0292Z" fill="white"/>
    <path fill-rule="evenodd" clip-rule="evenodd" d="M70.8391 36.1218C67.8308 43.9141 75.4915 50.7659 83.6108 48.1573C92.2221 45.3807 103.797 35.3717 104.882 26.1688C105.609 20.0111 100.285 13.6183 92.4458 16.1598C85.0982 18.5445 73.6462 28.8781 70.8391 36.1218Z" fill="black"/>
    <path fill-rule="evenodd" clip-rule="evenodd" d="M91.6187 18.9923C101.024 14.9954 101.572 24.5118 90.0642 34.5992C77.7287 45.4255 69.2292 43.3991 73.848 34.9127C76.9347 29.2476 85.6579 21.5113 91.6187 18.9923Z" fill="#FFDB59"/>
    <path fill-rule="evenodd" clip-rule="evenodd" d="M90.4998 37.8235C83.7449 42.7161 86.4513 52.6467 94.6824 54.8747C103.417 57.237 118.559 55.1322 124.476 48.0005C128.423 43.2311 127.439 34.9574 119.476 32.8302C112.006 30.8262 96.785 33.2669 90.4998 37.8235Z" fill="black"/>
    <path fill-rule="evenodd" clip-rule="evenodd" d="M117.24 34.756C127.305 36.5249 122.597 44.8098 107.465 47.0153C91.2267 49.3776 85.1988 43.0632 93.6759 38.4506C99.346 35.3717 110.876 33.6252 117.24 34.756Z" fill="#FFDB59"/>
    <path fill-rule="evenodd" clip-rule="evenodd" d="M4.14018 74.098C7.26041 74.7361 12.1364 75.0944 19.4505 74.2099C48.0469 70.7616 67.4728 99.2661 120.226 54.9308C158.742 22.575 149.549 8.27803 100.565 26.0905C100.867 26.0345 99.4355 30.5576 101.493 29.9083C110.026 27.2101 145.937 15.0739 131.409 34.1291C114.623 56.1176 83.4429 71.4782 55.5063 72.3178C8.15508 65.1413 78.8353 75.1168 33.307 67.6716C23.7674 66.1154 5.75064 71.355 5.10199 68.6904L1.82518 66.2833C-0.802963 67.0894 -0.72467 73.0903 4.14018 74.098Z" fill="black"/>
    <path fill-rule="evenodd" clip-rule="evenodd" d="M120.987 87.4432C98.9663 94.5301 91.2608 93.9703 68.4463 88.8986C91.6523 88.4396 97.2329 89.3128 119.332 80.7593C121.423 79.7517 124.32 85.8198 120.987 87.4432Z" fill="black"/>
    <path fill-rule="evenodd" clip-rule="evenodd" d="M51.1901 38.0922C43.0373 39.906 41.5834 50.0829 48.26 55.4009C55.3392 61.0436 70.068 65.1412 78.3215 60.954C83.8461 58.1439 86.217 50.1613 79.7641 45.0448C73.7026 40.2306 58.7614 36.4129 51.1901 38.0922Z" fill="black"/>
    <path fill-rule="evenodd" clip-rule="evenodd" d="M79.2041 52.9042C76.7325 54.7851 70.9283 55.3897 63.0998 53.2737C49.4558 49.5903 45.3179 42.9848 50.5965 40.6785C52.7661 45.7278 71.8677 51.4376 78.3318 52.378C78.5666 52.6244 78.8686 52.8035 79.2041 52.9042Z" fill="white"/>
    <path fill-rule="evenodd" clip-rule="evenodd" d="M76.9451 45.9181C80.0765 47.9893 81.0271 50.0605 80.2554 51.6727C77.4371 53.117 72.0355 53.4192 65.0122 51.516C54.0635 48.5491 49.2321 43.7237 50.4735 40.7344C51.3458 40.3426 52.4642 40.0627 53.8621 39.9395C60.2815 39.3686 71.5434 42.3466 76.9451 45.9181Z" fill="#FFDB59"/>
    <path fill-rule="evenodd" clip-rule="evenodd" d="M80.0657 36.8048C71.6444 36.5361 69.0386 45.0784 75.1672 51.2025C81.6649 57.7185 96.047 64.6039 104.848 62.8125C110.731 61.6146 114.019 55.1994 108.092 49.288C102.522 43.7349 87.8942 37.0511 80.0657 36.8048Z" fill="black"/>
    <path fill-rule="evenodd" clip-rule="evenodd" d="M106.705 55.9719C104.043 57.0915 98.0713 56.3302 90.377 52.7028C75.7377 45.8062 73.0424 38.4394 81.0499 38.8536C86.0042 47.7766 97.7916 51.2361 106.705 55.9719Z" fill="white"/>
    <path fill-rule="evenodd" clip-rule="evenodd" d="M105.151 49.4112C109.043 52.7476 109.043 55.233 106.348 56.1063C103.194 56.028 98.6759 54.8972 93.319 52.3669C80.95 46.5339 77.114 40.3763 81.0506 38.8536C81.5092 38.876 82.0124 38.9208 82.5492 38.9992C89.0916 39.9508 100.107 45.0897 105.151 49.4112Z" fill="#FFDB59"/>
    <path fill-rule="evenodd" clip-rule="evenodd" d="M34.6268 51.0011C26.3397 51.9415 23.8234 61.9058 29.8961 67.9067C36.3379 74.2659 50.5522 79.8974 59.2083 76.5946C64.9902 74.4002 68.1887 66.7087 62.3173 60.9317C56.7926 55.513 42.3434 50.139 34.6268 51.0011Z" fill="black"/>
    <path fill-rule="evenodd" clip-rule="evenodd" d="M58.1233 62.3647C63.8829 67.1005 62.3843 70.1345 54.9136 69.7427C52.1513 69.5859 48.7403 68.8582 44.882 67.358C29.5828 61.4242 27.4468 52.949 37.0982 53.117C37.9146 53.1282 38.8093 53.2065 39.7599 53.3521C44.6695 57.8528 53.7729 58.7708 58.1233 62.3647Z" fill="white"/>
    <path fill-rule="evenodd" clip-rule="evenodd" d="M59.4203 61.5026C64.5647 65.7458 62.876 69.2948 57.1277 69.7203C54.712 69.4068 51.9161 68.7015 48.8294 67.5035C34.4026 61.9056 31.6851 54.0462 39.5247 53.3185C46.0112 54.2029 55.014 57.864 59.4203 61.5026Z" fill="#FFDB59"/>
    <path fill-rule="evenodd" clip-rule="evenodd" d="M55.6748 62.0177C48.0811 67.2125 51.2572 76.4378 60.6179 77.9045C70.5489 79.4607 87.6821 76.2699 94.3028 69.015C98.7315 64.1673 97.5013 56.375 88.465 54.9755C79.9767 53.6656 62.7428 57.1923 55.6748 62.0177Z" fill="black"/>
    <path fill-rule="evenodd" clip-rule="evenodd" d="M85.9484 56.9796C97.378 57.8752 92.1329 66.1265 75.0109 69.4181C56.6362 72.9559 49.7248 67.414 59.2868 62.3647C65.6838 58.9836 78.7238 56.4198 85.9484 56.9796Z" fill="white"/>
    <path fill-rule="evenodd" clip-rule="evenodd" d="M85.9477 56.9795C92.4454 57.4946 93.5526 60.3719 90.1527 63.3723C87.3345 64.9173 83.465 66.3504 78.6672 67.3468C62.9878 70.616 55.6626 66.7199 59.7893 62.1072C66.3429 58.8604 78.9021 56.431 85.9477 56.9795Z" fill="#FFDB59"/>
    <path fill-rule="evenodd" clip-rule="evenodd" d="M24.3938 163.563C29.9744 168.792 36.1478 168.904 41.9968 165.444C49.6799 171.803 54.7125 170.74 63.2791 166.071C68.8597 169.396 76.0172 169.732 80.9716 164.481C76.9902 165.108 70.761 166.441 66.3658 163.25C62.966 160.787 61.501 161.459 58.8169 162.69C55.1487 164.369 51.2232 166.956 45.5532 163.004C41.5159 160.182 40.2186 160.809 37.8029 162.343C35.8905 163.552 32.9828 165.657 24.3938 163.563Z" fill="black"/>
    <path fill-rule="evenodd" clip-rule="evenodd" d="M94.3245 105.782C98.2611 100.352 100.397 99.1651 103.294 97.5417C106.817 95.5713 102.354 94.9107 100.453 94.8771C94.5705 94.7764 91.3385 97.2171 85.6572 101.684C82.6712 104.55 90.701 110.092 94.3245 105.782Z" fill="black"/>
    <path fill-rule="evenodd" clip-rule="evenodd" d="M26.3732 90.2533C26.1272 82.7298 26.5745 82.797 28.1514 78.1283C28.6435 76.6617 27.6034 75.2398 26.0489 76.1355C19.9091 79.6621 19.0032 84.6443 17.0685 92.3917C16.4534 96.4894 26.1496 95.8848 26.3732 90.2533Z" fill="black"/>
    <path fill-rule="evenodd" clip-rule="evenodd" d="M58.1573 90.3989C58.8954 83.1776 60.0026 80.5018 62.3623 76.3706C53.7845 77.9044 50.955 82.7746 47.7454 90.5892C46.6046 94.4182 57.2067 95.7281 58.1573 90.3989Z" fill="black"/>
    <path fill-rule="evenodd" clip-rule="evenodd" d="M391.428 111.279C399.066 112.667 400.341 114.168 400.341 116.62C400.341 121.568 405.933 126.796 409.411 127.748C432.259 131.555 433.858 109.085 424.609 100.363C419.398 95.4371 414.891 95.8849 409.545 96.7582C407.655 106.04 394.302 104.327 389.135 107.014C384.013 109.678 389.918 111.01 391.428 111.279Z" fill="black"/>
    <path fill-rule="evenodd" clip-rule="evenodd" d="M387.446 107.999C400.206 107.909 415.159 110.383 413.716 113.765C413.459 114.369 411.748 114.907 410.305 114.94C410.037 116.429 409.746 117.829 409.444 119.127C409.366 119.463 409.287 119.799 409.209 120.124C419.957 123.606 424.05 113.877 421.153 107.316C415.707 94.9668 396.74 99.266 387.927 104.114C385.053 105.692 385.903 108.01 387.446 107.999Z" fill="#FFDB59"/>
    <path fill-rule="evenodd" clip-rule="evenodd" d="M411.96 103.42C411.032 103.061 410.048 102.748 409.03 102.49C403.707 101.158 397.534 101.281 392.121 102.266C391.975 102.289 391.83 102.311 391.685 102.345C391.74 102.322 391.796 102.3 391.863 102.278C393.44 101.639 395.163 101.068 396.952 100.587C398.283 100.24 399.658 99.9377 401.045 99.7138C401.951 99.5682 402.857 99.4563 403.752 99.3779C403.919 99.3667 404.098 99.3443 404.266 99.3331C404.948 99.2883 405.63 99.266 406.301 99.2548C407.073 99.2548 407.834 99.2771 408.583 99.3443C408.84 99.3667 409.097 99.3891 409.355 99.4227C410.339 99.5346 411.312 99.7138 412.24 99.9601C413.425 100.274 414.555 100.71 415.606 101.281C417.966 102.558 419.912 104.506 421.153 107.316C422.383 110.103 422.35 113.451 421.097 116.116C421.612 110.025 417.373 105.536 411.96 103.42Z" fill="white"/>
</svg>
