<svg width="972" height="219" viewBox="0 0 972 219" fill="none" xmlns="http://www.w3.org/2000/svg">
    <path opacity="0.15" d="M146.64 2.39999L90.72 115.44H56.16L0 2.39999H38.16L66 63.36C67.44 66.56 68.64 70 69.6 73.68C70.56 77.36 71.44 80.88 72.24 84.24H74.64C75.6 80.88 76.56 77.36 77.52 73.68C78.48 70 79.6 66.56 80.88 63.36L108.48 2.39999H146.64ZM91.68 93.12V168H54.96V93.12H91.68ZM208.993 46.32C218.913 46.32 227.313 47.68 234.193 50.4C241.073 52.96 246.273 57.44 249.793 63.84C253.473 70.08 255.313 78.72 255.313 89.76V168H226.993L221.953 142.32L219.553 138.72V89.52C219.553 83.92 218.193 79.84 215.473 77.28C212.913 74.72 207.953 73.44 200.593 73.44C194.513 73.44 186.913 73.68 177.793 74.16C168.673 74.48 159.313 74.96 149.713 75.6L146.353 52.08C152.113 50.96 158.753 50 166.273 49.2C173.793 48.4 181.313 47.76 188.833 47.28C196.353 46.64 203.073 46.32 208.993 46.32ZM240.673 95.04L240.433 114.96L187.633 115.2C183.313 115.2 180.193 116.24 178.273 118.32C176.513 120.4 175.633 123.2 175.633 126.72V132.48C175.633 136.48 176.753 139.6 178.993 141.84C181.233 143.92 184.833 144.96 189.793 144.96C193.953 144.96 198.433 144.08 203.233 142.32C208.193 140.56 213.073 138.08 217.873 134.88C222.673 131.68 226.913 127.92 230.593 123.6V138.96C229.153 141.36 226.993 144.4 224.113 148.08C221.393 151.6 217.873 155.12 213.553 158.64C209.233 162 204.193 164.88 198.433 167.28C192.673 169.68 186.113 170.88 178.753 170.88C171.553 170.88 165.073 169.6 159.313 167.04C153.553 164.48 148.993 160.72 145.633 155.76C142.273 150.8 140.593 144.64 140.593 137.28V125.04C140.593 115.6 143.793 108.24 150.193 102.96C156.593 97.68 165.393 95.04 176.593 95.04H240.673ZM339.628 46.32C354.508 46.32 366.428 48.4 375.388 52.56C384.348 56.56 390.748 63.12 394.588 72.24C398.588 81.36 400.588 93.6 400.588 108.96C400.588 124 398.588 136.08 394.588 145.2C390.748 154.32 384.348 160.88 375.388 164.88C366.428 168.88 354.508 170.88 339.628 170.88C324.908 170.88 312.988 168.88 303.868 164.88C294.908 160.88 288.428 154.32 284.428 145.2C280.428 136.08 278.428 124 278.428 108.96C278.428 93.6 280.428 81.36 284.428 72.24C288.428 63.12 294.908 56.56 303.868 52.56C312.988 48.4 324.908 46.32 339.628 46.32ZM339.628 72.24C333.548 72.24 328.748 73.28 325.228 75.36C321.708 77.44 319.228 81.12 317.788 86.4C316.348 91.68 315.628 99.2 315.628 108.96C315.628 118.56 316.348 126 317.788 131.28C319.228 136.56 321.708 140.24 325.228 142.32C328.748 144.24 333.548 145.2 339.628 145.2C345.708 145.2 350.508 144.24 354.028 142.32C357.548 140.24 360.028 136.56 361.468 131.28C362.908 126 363.628 118.56 363.628 108.96C363.628 99.2 362.908 91.68 361.468 86.4C360.028 81.12 357.548 77.44 354.028 75.36C350.508 73.28 345.708 72.24 339.628 72.24ZM507.351 46.32C529.751 46.32 540.951 57.28 540.951 79.2V168H505.431V90.24C505.431 84.96 504.471 81.36 502.551 79.44C500.631 77.36 497.351 76.32 492.711 76.32C487.591 76.32 482.311 77.36 476.871 79.44C471.431 81.36 464.711 84.4 456.711 88.56L455.031 68.64C463.511 61.44 472.151 55.92 480.951 52.08C489.911 48.24 498.711 46.32 507.351 46.32ZM453.351 49.44L457.431 72.96L460.311 76.08V168H424.791V49.44H453.351ZM634.691 -1.14441e-05C650.211 -1.14441e-05 662.371 1.59999 671.171 4.8C679.971 8 686.211 13.52 689.891 21.36C693.731 29.2 695.651 40.16 695.651 54.24C695.651 68.32 693.811 79.28 690.131 87.12C686.611 94.96 680.771 100.48 672.611 103.68C664.451 106.72 653.411 108.24 639.491 108.24C632.131 108.24 624.931 107.92 617.891 107.28C610.851 106.64 604.291 105.84 598.211 104.88C592.131 103.92 586.931 102.96 582.611 102C578.291 100.88 575.331 99.84 573.731 98.88L574.451 80.64C583.891 80.64 593.651 80.64 603.731 80.64C613.971 80.64 624.051 80.64 633.971 80.64C640.371 80.48 645.331 79.68 648.851 78.24C652.531 76.8 655.091 74.16 656.531 70.32C658.131 66.48 658.931 61.12 658.931 54.24C658.931 47.2 658.131 41.76 656.531 37.92C655.091 34.08 652.531 31.44 648.851 30C645.331 28.4 640.371 27.6 633.971 27.6C619.251 27.6 606.611 27.68 596.051 27.84C585.491 28 578.371 28.32 574.691 28.8L571.091 2.39999C577.811 1.59999 584.131 1.03999 590.051 0.719994C595.971 0.399988 602.371 0.239985 609.251 0.239985C616.291 0.0799875 624.771 -1.14441e-05 634.691 -1.14441e-05ZM607.811 2.39999V168H571.091V2.39999H607.811ZM778.759 46.32C788.679 46.32 797.079 47.68 803.959 50.4C810.839 52.96 816.039 57.44 819.559 63.84C823.239 70.08 825.079 78.72 825.079 89.76V168H796.759L791.719 142.32L789.319 138.72V89.52C789.319 83.92 787.959 79.84 785.239 77.28C782.679 74.72 777.719 73.44 770.359 73.44C764.279 73.44 756.679 73.68 747.559 74.16C738.439 74.48 729.079 74.96 719.479 75.6L716.119 52.08C721.879 50.96 728.519 50 736.039 49.2C743.559 48.4 751.079 47.76 758.599 47.28C766.119 46.64 772.839 46.32 778.759 46.32ZM810.439 95.04L810.199 114.96L757.399 115.2C753.079 115.2 749.959 116.24 748.039 118.32C746.279 120.4 745.399 123.2 745.399 126.72V132.48C745.399 136.48 746.519 139.6 748.759 141.84C750.999 143.92 754.599 144.96 759.559 144.96C763.719 144.96 768.199 144.08 772.999 142.32C777.959 140.56 782.839 138.08 787.639 134.88C792.439 131.68 796.679 127.92 800.359 123.6V138.96C798.919 141.36 796.759 144.4 793.879 148.08C791.159 151.6 787.639 155.12 783.319 158.64C778.999 162 773.959 164.88 768.199 167.28C762.439 169.68 755.879 170.88 748.519 170.88C741.319 170.88 734.839 169.6 729.079 167.04C723.319 164.48 718.759 160.72 715.399 155.76C712.039 150.8 710.359 144.64 710.359 137.28V125.04C710.359 115.6 713.559 108.24 719.959 102.96C726.359 97.68 735.159 95.04 746.359 95.04H810.439ZM971.336 49.44L928.856 169.44C926.936 175.36 924.216 181.28 920.696 187.2C917.336 193.28 913.016 198.72 907.736 203.52C902.616 208.32 896.376 211.92 889.016 214.32C881.816 216.88 873.256 217.52 863.336 216.24L860.696 196.08C870.456 193.52 878.056 190.08 883.496 185.76C888.936 181.44 893.176 175.76 896.216 168.72L903.656 152.16C905.096 148.64 906.456 144.4 907.736 139.44C909.176 134.32 910.376 129.92 911.336 126.24L933.416 49.44H971.336ZM877.256 49.44L899.816 126.24C900.456 129.28 901.096 132.32 901.736 135.36C902.376 138.4 902.936 141.44 903.416 144.48H909.896L898.616 168H889.976C887.256 168 884.856 167.2 882.776 165.6C880.696 164 879.256 161.92 878.456 159.36L839.336 49.44H877.256Z" fill="#7F86E8"/>
</svg>
